<svg width="100" height="35" viewBox="0 0 100 35" fill="none" xmlns="http://www.w3.org/2000/svg">
<g clip-path="url(#clip0_99_303)">
<rect width="100" height="35" fill="url(#paint0_linear_99_303)"/>
<path d="M-19.22 -10.516C-19.22 -9.812 -19.356 -9.184 -19.628 -8.632C-19.892 -8.088 -20.26 -7.66 -20.732 -7.348C-21.196 -7.036 -21.724 -6.88 -22.316 -6.88C-22.908 -6.88 -23.44 -7.036 -23.912 -7.348C-24.376 -7.66 -24.744 -8.088 -25.016 -8.632C-25.28 -9.184 -25.412 -9.812 -25.412 -10.516C-25.412 -11.22 -25.28 -11.844 -25.016 -12.388C-24.744 -12.94 -24.376 -13.372 -23.912 -13.684C-23.44 -14.004 -22.908 -14.164 -22.316 -14.164C-21.724 -14.164 -21.196 -14.004 -20.732 -13.684C-20.26 -13.372 -19.892 -12.94 -19.628 -12.388C-19.356 -11.844 -19.22 -11.22 -19.22 -10.516ZM-20.84 -10.516C-20.84 -10.948 -20.904 -11.324 -21.032 -11.644C-21.152 -11.972 -21.324 -12.228 -21.548 -12.412C-21.772 -12.596 -22.028 -12.688 -22.316 -12.688C-22.612 -12.688 -22.872 -12.596 -23.096 -12.412C-23.32 -12.228 -23.496 -11.972 -23.624 -11.644C-23.744 -11.324 -23.804 -10.948 -23.804 -10.516C-23.804 -10.084 -23.744 -9.708 -23.624 -9.388C-23.496 -9.068 -23.32 -8.816 -23.096 -8.632C-22.872 -8.448 -22.612 -8.356 -22.316 -8.356C-22.028 -8.356 -21.776 -8.448 -21.56 -8.632C-21.336 -8.816 -21.16 -9.068 -21.032 -9.388C-20.904 -9.716 -20.84 -10.092 -20.84 -10.516ZM-12.6289 -8.452V-7H-17.5009V-8.452H-15.7969V-12.088C-15.8689 -11.992 -15.9809 -11.892 -16.1329 -11.788C-16.2849 -11.692 -16.4569 -11.6 -16.6489 -11.512C-16.8409 -11.424 -17.0329 -11.352 -17.2249 -11.296C-17.4169 -11.24 -17.5889 -11.212 -17.7409 -11.212V-12.712C-17.5969 -12.712 -17.4249 -12.756 -17.2249 -12.844C-17.0169 -12.94 -16.8129 -13.052 -16.6129 -13.18C-16.4049 -13.308 -16.2289 -13.432 -16.0849 -13.552C-15.9329 -13.68 -15.8369 -13.78 -15.7969 -13.852H-14.1529V-8.452H-12.6289ZM-1.95641 -10.516C-1.95641 -9.812 -2.09241 -9.184 -2.36441 -8.632C-2.62841 -8.088 -2.99641 -7.66 -3.46841 -7.348C-3.93241 -7.036 -4.46041 -6.88 -5.05241 -6.88C-5.64441 -6.88 -6.17641 -7.036 -6.64841 -7.348C-7.11241 -7.66 -7.48041 -8.088 -7.75241 -8.632C-8.01641 -9.184 -8.14841 -9.812 -8.14841 -10.516C-8.14841 -11.22 -8.01641 -11.844 -7.75241 -12.388C-7.48041 -12.94 -7.11241 -13.372 -6.64841 -13.684C-6.17641 -14.004 -5.64441 -14.164 -5.05241 -14.164C-4.46041 -14.164 -3.93241 -14.004 -3.46841 -13.684C-2.99641 -13.372 -2.62841 -12.94 -2.36441 -12.388C-2.09241 -11.844 -1.95641 -11.22 -1.95641 -10.516ZM-3.57641 -10.516C-3.57641 -10.948 -3.64041 -11.324 -3.76841 -11.644C-3.88841 -11.972 -4.06041 -12.228 -4.28441 -12.412C-4.50841 -12.596 -4.76441 -12.688 -5.05241 -12.688C-5.34841 -12.688 -5.60841 -12.596 -5.83241 -12.412C-6.05641 -12.228 -6.23241 -11.972 -6.36041 -11.644C-6.48041 -11.324 -6.54041 -10.948 -6.54041 -10.516C-6.54041 -10.084 -6.48041 -9.708 -6.36041 -9.388C-6.23241 -9.068 -6.05641 -8.816 -5.83241 -8.632C-5.60841 -8.448 -5.34841 -8.356 -5.05241 -8.356C-4.76441 -8.356 -4.51241 -8.448 -4.29641 -8.632C-4.07241 -8.816 -3.89641 -9.068 -3.76841 -9.388C-3.64041 -9.716 -3.57641 -10.092 -3.57641 -10.516ZM4.63469 -8.452V-7H-0.237312V-8.452H1.46669V-12.088C1.39469 -11.992 1.28269 -11.892 1.13069 -11.788C0.978688 -11.692 0.806688 -11.6 0.614688 -11.512C0.422688 -11.424 0.230688 -11.352 0.0386881 -11.296C-0.153312 -11.24 -0.325312 -11.212 -0.477312 -11.212V-12.712C-0.333312 -12.712 -0.161312 -12.756 0.0386881 -12.844C0.246688 -12.94 0.450688 -13.052 0.650688 -13.18C0.858688 -13.308 1.03469 -13.432 1.17869 -13.552C1.33069 -13.68 1.42669 -13.78 1.46669 -13.852H3.11069V-8.452H4.63469ZM15.3072 -10.516C15.3072 -9.812 15.1712 -9.184 14.8992 -8.632C14.6352 -8.088 14.2672 -7.66 13.7952 -7.348C13.3312 -7.036 12.8032 -6.88 12.2112 -6.88C11.6192 -6.88 11.0872 -7.036 10.6152 -7.348C10.1512 -7.66 9.78319 -8.088 9.51119 -8.632C9.24719 -9.184 9.11519 -9.812 9.11519 -10.516C9.11519 -11.22 9.24719 -11.844 9.51119 -12.388C9.78319 -12.94 10.1512 -13.372 10.6152 -13.684C11.0872 -14.004 11.6192 -14.164 12.2112 -14.164C12.8032 -14.164 13.3312 -14.004 13.7952 -13.684C14.2672 -13.372 14.6352 -12.94 14.8992 -12.388C15.1712 -11.844 15.3072 -11.22 15.3072 -10.516ZM13.6872 -10.516C13.6872 -10.948 13.6232 -11.324 13.4952 -11.644C13.3752 -11.972 13.2032 -12.228 12.9792 -12.412C12.7552 -12.596 12.4992 -12.688 12.2112 -12.688C11.9152 -12.688 11.6552 -12.596 11.4312 -12.412C11.2072 -12.228 11.0312 -11.972 10.9032 -11.644C10.7832 -11.324 10.7232 -10.948 10.7232 -10.516C10.7232 -10.084 10.7832 -9.708 10.9032 -9.388C11.0312 -9.068 11.2072 -8.816 11.4312 -8.632C11.6552 -8.448 11.9152 -8.356 12.2112 -8.356C12.4992 -8.356 12.7512 -8.448 12.9672 -8.632C13.1912 -8.816 13.3672 -9.068 13.4952 -9.388C13.6232 -9.716 13.6872 -10.092 13.6872 -10.516ZM21.8983 -8.452V-7H17.0263V-8.452H18.7303V-12.088C18.6583 -11.992 18.5463 -11.892 18.3943 -11.788C18.2423 -11.692 18.0703 -11.6 17.8783 -11.512C17.6863 -11.424 17.4943 -11.352 17.3023 -11.296C17.1103 -11.24 16.9383 -11.212 16.7863 -11.212V-12.712C16.9303 -12.712 17.1023 -12.756 17.3023 -12.844C17.5103 -12.94 17.7143 -13.052 17.9143 -13.18C18.1223 -13.308 18.2983 -13.432 18.4423 -13.552C18.5943 -13.68 18.6903 -13.78 18.7303 -13.852H20.3743V-8.452H21.8983ZM32.5708 -10.516C32.5708 -9.812 32.4348 -9.184 32.1628 -8.632C31.8988 -8.088 31.5308 -7.66 31.0588 -7.348C30.5948 -7.036 30.0668 -6.88 29.4748 -6.88C28.8828 -6.88 28.3508 -7.036 27.8788 -7.348C27.4148 -7.66 27.0468 -8.088 26.7748 -8.632C26.5108 -9.184 26.3788 -9.812 26.3788 -10.516C26.3788 -11.22 26.5108 -11.844 26.7748 -12.388C27.0468 -12.94 27.4148 -13.372 27.8788 -13.684C28.3508 -14.004 28.8828 -14.164 29.4748 -14.164C30.0668 -14.164 30.5948 -14.004 31.0588 -13.684C31.5308 -13.372 31.8988 -12.94 32.1628 -12.388C32.4348 -11.844 32.5708 -11.22 32.5708 -10.516ZM30.9508 -10.516C30.9508 -10.948 30.8868 -11.324 30.7588 -11.644C30.6388 -11.972 30.4668 -12.228 30.2428 -12.412C30.0188 -12.596 29.7628 -12.688 29.4748 -12.688C29.1788 -12.688 28.9188 -12.596 28.6948 -12.412C28.4708 -12.228 28.2948 -11.972 28.1668 -11.644C28.0468 -11.324 27.9868 -10.948 27.9868 -10.516C27.9868 -10.084 28.0468 -9.708 28.1668 -9.388C28.2948 -9.068 28.4708 -8.816 28.6948 -8.632C28.9188 -8.448 29.1788 -8.356 29.4748 -8.356C29.7628 -8.356 30.0148 -8.448 30.2308 -8.632C30.4548 -8.816 30.6308 -9.068 30.7588 -9.388C30.8868 -9.716 30.9508 -10.092 30.9508 -10.516ZM39.1619 -8.452V-7H34.2899V-8.452H35.9939V-12.088C35.9219 -11.992 35.8099 -11.892 35.6579 -11.788C35.5059 -11.692 35.3339 -11.6 35.1419 -11.512C34.9499 -11.424 34.7579 -11.352 34.5659 -11.296C34.3739 -11.24 34.2019 -11.212 34.0499 -11.212V-12.712C34.1939 -12.712 34.3659 -12.756 34.5659 -12.844C34.7739 -12.94 34.9779 -13.052 35.1779 -13.18C35.3859 -13.308 35.5619 -13.432 35.7059 -13.552C35.8579 -13.68 35.9539 -13.78 35.9939 -13.852H37.6379V-8.452H39.1619ZM49.8344 -10.516C49.8344 -9.812 49.6984 -9.184 49.4264 -8.632C49.1624 -8.088 48.7944 -7.66 48.3224 -7.348C47.8584 -7.036 47.3304 -6.88 46.7384 -6.88C46.1464 -6.88 45.6144 -7.036 45.1424 -7.348C44.6784 -7.66 44.3104 -8.088 44.0384 -8.632C43.7744 -9.184 43.6424 -9.812 43.6424 -10.516C43.6424 -11.22 43.7744 -11.844 44.0384 -12.388C44.3104 -12.94 44.6784 -13.372 45.1424 -13.684C45.6144 -14.004 46.1464 -14.164 46.7384 -14.164C47.3304 -14.164 47.8584 -14.004 48.3224 -13.684C48.7944 -13.372 49.1624 -12.94 49.4264 -12.388C49.6984 -11.844 49.8344 -11.22 49.8344 -10.516ZM48.2144 -10.516C48.2144 -10.948 48.1504 -11.324 48.0224 -11.644C47.9024 -11.972 47.7304 -12.228 47.5064 -12.412C47.2824 -12.596 47.0264 -12.688 46.7384 -12.688C46.4424 -12.688 46.1824 -12.596 45.9584 -12.412C45.7344 -12.228 45.5584 -11.972 45.4304 -11.644C45.3104 -11.324 45.2504 -10.948 45.2504 -10.516C45.2504 -10.084 45.3104 -9.708 45.4304 -9.388C45.5584 -9.068 45.7344 -8.816 45.9584 -8.632C46.1824 -8.448 46.4424 -8.356 46.7384 -8.356C47.0264 -8.356 47.2784 -8.448 47.4944 -8.632C47.7184 -8.816 47.8944 -9.068 48.0224 -9.388C48.1504 -9.716 48.2144 -10.092 48.2144 -10.516ZM56.4255 -8.452V-7H51.5535V-8.452H53.2575V-12.088C53.1855 -11.992 53.0735 -11.892 52.9215 -11.788C52.7695 -11.692 52.5975 -11.6 52.4055 -11.512C52.2135 -11.424 52.0215 -11.352 51.8295 -11.296C51.6375 -11.24 51.4655 -11.212 51.3135 -11.212V-12.712C51.4575 -12.712 51.6295 -12.756 51.8295 -12.844C52.0375 -12.94 52.2415 -13.052 52.4415 -13.18C52.6495 -13.308 52.8255 -13.432 52.9695 -13.552C53.1215 -13.68 53.2175 -13.78 53.2575 -13.852H54.9015V-8.452H56.4255ZM67.098 -10.516C67.098 -9.812 66.962 -9.184 66.69 -8.632C66.426 -8.088 66.058 -7.66 65.586 -7.348C65.122 -7.036 64.594 -6.88 64.002 -6.88C63.41 -6.88 62.878 -7.036 62.406 -7.348C61.942 -7.66 61.574 -8.088 61.302 -8.632C61.038 -9.184 60.906 -9.812 60.906 -10.516C60.906 -11.22 61.038 -11.844 61.302 -12.388C61.574 -12.94 61.942 -13.372 62.406 -13.684C62.878 -14.004 63.41 -14.164 64.002 -14.164C64.594 -14.164 65.122 -14.004 65.586 -13.684C66.058 -13.372 66.426 -12.94 66.69 -12.388C66.962 -11.844 67.098 -11.22 67.098 -10.516ZM65.478 -10.516C65.478 -10.948 65.414 -11.324 65.286 -11.644C65.166 -11.972 64.994 -12.228 64.77 -12.412C64.546 -12.596 64.29 -12.688 64.002 -12.688C63.706 -12.688 63.446 -12.596 63.222 -12.412C62.998 -12.228 62.822 -11.972 62.694 -11.644C62.574 -11.324 62.514 -10.948 62.514 -10.516C62.514 -10.084 62.574 -9.708 62.694 -9.388C62.822 -9.068 62.998 -8.816 63.222 -8.632C63.446 -8.448 63.706 -8.356 64.002 -8.356C64.29 -8.356 64.542 -8.448 64.758 -8.632C64.982 -8.816 65.158 -9.068 65.286 -9.388C65.414 -9.716 65.478 -10.092 65.478 -10.516ZM73.6891 -8.452V-7H68.8171V-8.452H70.5211V-12.088C70.4491 -11.992 70.3371 -11.892 70.1851 -11.788C70.0331 -11.692 69.8611 -11.6 69.6691 -11.512C69.4771 -11.424 69.2851 -11.352 69.0931 -11.296C68.9011 -11.24 68.7291 -11.212 68.5771 -11.212V-12.712C68.7211 -12.712 68.8931 -12.756 69.0931 -12.844C69.3011 -12.94 69.5051 -13.052 69.7051 -13.18C69.9131 -13.308 70.0891 -13.432 70.2331 -13.552C70.3851 -13.68 70.4811 -13.78 70.5211 -13.852H72.1651V-8.452H73.6891ZM84.3616 -10.516C84.3616 -9.812 84.2256 -9.184 83.9536 -8.632C83.6896 -8.088 83.3216 -7.66 82.8496 -7.348C82.3856 -7.036 81.8576 -6.88 81.2656 -6.88C80.6736 -6.88 80.1416 -7.036 79.6696 -7.348C79.2056 -7.66 78.8376 -8.088 78.5656 -8.632C78.3016 -9.184 78.1696 -9.812 78.1696 -10.516C78.1696 -11.22 78.3016 -11.844 78.5656 -12.388C78.8376 -12.94 79.2056 -13.372 79.6696 -13.684C80.1416 -14.004 80.6736 -14.164 81.2656 -14.164C81.8576 -14.164 82.3856 -14.004 82.8496 -13.684C83.3216 -13.372 83.6896 -12.94 83.9536 -12.388C84.2256 -11.844 84.3616 -11.22 84.3616 -10.516ZM82.7416 -10.516C82.7416 -10.948 82.6776 -11.324 82.5496 -11.644C82.4296 -11.972 82.2576 -12.228 82.0336 -12.412C81.8096 -12.596 81.5536 -12.688 81.2656 -12.688C80.9696 -12.688 80.7096 -12.596 80.4856 -12.412C80.2616 -12.228 80.0856 -11.972 79.9576 -11.644C79.8376 -11.324 79.7776 -10.948 79.7776 -10.516C79.7776 -10.084 79.8376 -9.708 79.9576 -9.388C80.0856 -9.068 80.2616 -8.816 80.4856 -8.632C80.7096 -8.448 80.9696 -8.356 81.2656 -8.356C81.5536 -8.356 81.8056 -8.448 82.0216 -8.632C82.2456 -8.816 82.4216 -9.068 82.5496 -9.388C82.6776 -9.716 82.7416 -10.092 82.7416 -10.516ZM90.9527 -8.452V-7H86.0807V-8.452H87.7847V-12.088C87.7127 -11.992 87.6007 -11.892 87.4487 -11.788C87.2967 -11.692 87.1247 -11.6 86.9327 -11.512C86.7407 -11.424 86.5487 -11.352 86.3567 -11.296C86.1647 -11.24 85.9927 -11.212 85.8407 -11.212V-12.712C85.9847 -12.712 86.1567 -12.756 86.3567 -12.844C86.5647 -12.94 86.7687 -13.052 86.9687 -13.18C87.1767 -13.308 87.3527 -13.432 87.4967 -13.552C87.6487 -13.68 87.7447 -13.78 87.7847 -13.852H89.4287V-8.452H90.9527ZM101.625 -10.516C101.625 -9.812 101.489 -9.184 101.217 -8.632C100.953 -8.088 100.585 -7.66 100.113 -7.348C99.6492 -7.036 99.1212 -6.88 98.5292 -6.88C97.9372 -6.88 97.4052 -7.036 96.9332 -7.348C96.4692 -7.66 96.1012 -8.088 95.8292 -8.632C95.5652 -9.184 95.4332 -9.812 95.4332 -10.516C95.4332 -11.22 95.5652 -11.844 95.8292 -12.388C96.1012 -12.94 96.4692 -13.372 96.9332 -13.684C97.4052 -14.004 97.9372 -14.164 98.5292 -14.164C99.1212 -14.164 99.6492 -14.004 100.113 -13.684C100.585 -13.372 100.953 -12.94 101.217 -12.388C101.489 -11.844 101.625 -11.22 101.625 -10.516ZM100.005 -10.516C100.005 -10.948 99.9412 -11.324 99.8132 -11.644C99.6932 -11.972 99.5212 -12.228 99.2972 -12.412C99.0732 -12.596 98.8172 -12.688 98.5292 -12.688C98.2332 -12.688 97.9732 -12.596 97.7492 -12.412C97.5252 -12.228 97.3492 -11.972 97.2212 -11.644C97.1012 -11.324 97.0412 -10.948 97.0412 -10.516C97.0412 -10.084 97.1012 -9.708 97.2212 -9.388C97.3492 -9.068 97.5252 -8.816 97.7492 -8.632C97.9732 -8.448 98.2332 -8.356 98.5292 -8.356C98.8172 -8.356 99.0692 -8.448 99.2852 -8.632C99.5092 -8.816 99.6852 -9.068 99.8132 -9.388C99.9412 -9.716 100.005 -10.092 100.005 -10.516ZM108.216 -8.452V-7H103.344V-8.452H105.048V-12.088C104.976 -11.992 104.864 -11.892 104.712 -11.788C104.56 -11.692 104.388 -11.6 104.196 -11.512C104.004 -11.424 103.812 -11.352 103.62 -11.296C103.428 -11.24 103.256 -11.212 103.104 -11.212V-12.712C103.248 -12.712 103.42 -12.756 103.62 -12.844C103.828 -12.94 104.032 -13.052 104.232 -13.18C104.44 -13.308 104.616 -13.432 104.76 -13.552C104.912 -13.68 105.008 -13.78 105.048 -13.852H106.692V-8.452H108.216ZM-19.22 3.484C-19.22 4.188 -19.356 4.816 -19.628 5.368C-19.892 5.912 -20.26 6.34 -20.732 6.652C-21.196 6.964 -21.724 7.12 -22.316 7.12C-22.908 7.12 -23.44 6.964 -23.912 6.652C-24.376 6.34 -24.744 5.912 -25.016 5.368C-25.28 4.816 -25.412 4.188 -25.412 3.484C-25.412 2.78 -25.28 2.156 -25.016 1.612C-24.744 1.06 -24.376 0.628 -23.912 0.316C-23.44 -0.00400019 -22.908 -0.164 -22.316 -0.164C-21.724 -0.164 -21.196 -0.00400019 -20.732 0.316C-20.26 0.628 -19.892 1.06 -19.628 1.612C-19.356 2.156 -19.22 2.78 -19.22 3.484ZM-20.84 3.484C-20.84 3.052 -20.904 2.676 -21.032 2.356C-21.152 2.028 -21.324 1.772 -21.548 1.588C-21.772 1.404 -22.028 1.312 -22.316 1.312C-22.612 1.312 -22.872 1.404 -23.096 1.588C-23.32 1.772 -23.496 2.028 -23.624 2.356C-23.744 2.676 -23.804 3.052 -23.804 3.484C-23.804 3.916 -23.744 4.292 -23.624 4.612C-23.496 4.932 -23.32 5.184 -23.096 5.368C-22.872 5.552 -22.612 5.644 -22.316 5.644C-22.028 5.644 -21.776 5.552 -21.56 5.368C-21.336 5.184 -21.16 4.932 -21.032 4.612C-20.904 4.284 -20.84 3.908 -20.84 3.484ZM-12.6289 5.548V7H-17.5009V5.548H-15.7969V1.912C-15.8689 2.008 -15.9809 2.108 -16.1329 2.212C-16.2849 2.308 -16.4569 2.4 -16.6489 2.488C-16.8409 2.576 -17.0329 2.648 -17.2249 2.704C-17.4169 2.76 -17.5889 2.788 -17.7409 2.788V1.288C-17.5969 1.288 -17.4249 1.244 -17.2249 1.156C-17.0169 1.06 -16.8129 0.948 -16.6129 0.819999C-16.4049 0.692 -16.2289 0.568 -16.0849 0.448C-15.9329 0.32 -15.8369 0.22 -15.7969 0.148H-14.1529V5.548H-12.6289ZM-1.95641 3.484C-1.95641 4.188 -2.09241 4.816 -2.36441 5.368C-2.62841 5.912 -2.99641 6.34 -3.46841 6.652C-3.93241 6.964 -4.46041 7.12 -5.05241 7.12C-5.64441 7.12 -6.17641 6.964 -6.64841 6.652C-7.11241 6.34 -7.48041 5.912 -7.75241 5.368C-8.01641 4.816 -8.14841 4.188 -8.14841 3.484C-8.14841 2.78 -8.01641 2.156 -7.75241 1.612C-7.48041 1.06 -7.11241 0.628 -6.64841 0.316C-6.17641 -0.00400019 -5.64441 -0.164 -5.05241 -0.164C-4.46041 -0.164 -3.93241 -0.00400019 -3.46841 0.316C-2.99641 0.628 -2.62841 1.06 -2.36441 1.612C-2.09241 2.156 -1.95641 2.78 -1.95641 3.484ZM-3.57641 3.484C-3.57641 3.052 -3.64041 2.676 -3.76841 2.356C-3.88841 2.028 -4.06041 1.772 -4.28441 1.588C-4.50841 1.404 -4.76441 1.312 -5.05241 1.312C-5.34841 1.312 -5.60841 1.404 -5.83241 1.588C-6.05641 1.772 -6.23241 2.028 -6.36041 2.356C-6.48041 2.676 -6.54041 3.052 -6.54041 3.484C-6.54041 3.916 -6.48041 4.292 -6.36041 4.612C-6.23241 4.932 -6.05641 5.184 -5.83241 5.368C-5.60841 5.552 -5.34841 5.644 -5.05241 5.644C-4.76441 5.644 -4.51241 5.552 -4.29641 5.368C-4.07241 5.184 -3.89641 4.932 -3.76841 4.612C-3.64041 4.284 -3.57641 3.908 -3.57641 3.484ZM4.63469 5.548V7H-0.237312V5.548H1.46669V1.912C1.39469 2.008 1.28269 2.108 1.13069 2.212C0.978688 2.308 0.806688 2.4 0.614688 2.488C0.422688 2.576 0.230688 2.648 0.0386881 2.704C-0.153312 2.76 -0.325312 2.788 -0.477312 2.788V1.288C-0.333312 1.288 -0.161312 1.244 0.0386881 1.156C0.246688 1.06 0.450688 0.948 0.650688 0.819999C0.858688 0.692 1.03469 0.568 1.17869 0.448C1.33069 0.32 1.42669 0.22 1.46669 0.148H3.11069V5.548H4.63469ZM15.3072 3.484C15.3072 4.188 15.1712 4.816 14.8992 5.368C14.6352 5.912 14.2672 6.34 13.7952 6.652C13.3312 6.964 12.8032 7.12 12.2112 7.12C11.6192 7.12 11.0872 6.964 10.6152 6.652C10.1512 6.34 9.78319 5.912 9.51119 5.368C9.24719 4.816 9.11519 4.188 9.11519 3.484C9.11519 2.78 9.24719 2.156 9.51119 1.612C9.78319 1.06 10.1512 0.628 10.6152 0.316C11.0872 -0.00400019 11.6192 -0.164 12.2112 -0.164C12.8032 -0.164 13.3312 -0.00400019 13.7952 0.316C14.2672 0.628 14.6352 1.06 14.8992 1.612C15.1712 2.156 15.3072 2.78 15.3072 3.484ZM13.6872 3.484C13.6872 3.052 13.6232 2.676 13.4952 2.356C13.3752 2.028 13.2032 1.772 12.9792 1.588C12.7552 1.404 12.4992 1.312 12.2112 1.312C11.9152 1.312 11.6552 1.404 11.4312 1.588C11.2072 1.772 11.0312 2.028 10.9032 2.356C10.7832 2.676 10.7232 3.052 10.7232 3.484C10.7232 3.916 10.7832 4.292 10.9032 4.612C11.0312 4.932 11.2072 5.184 11.4312 5.368C11.6552 5.552 11.9152 5.644 12.2112 5.644C12.4992 5.644 12.7512 5.552 12.9672 5.368C13.1912 5.184 13.3672 4.932 13.4952 4.612C13.6232 4.284 13.6872 3.908 13.6872 3.484ZM21.8983 5.548V7H17.0263V5.548H18.7303V1.912C18.6583 2.008 18.5463 2.108 18.3943 2.212C18.2423 2.308 18.0703 2.4 17.8783 2.488C17.6863 2.576 17.4943 2.648 17.3023 2.704C17.1103 2.76 16.9383 2.788 16.7863 2.788V1.288C16.9303 1.288 17.1023 1.244 17.3023 1.156C17.5103 1.06 17.7143 0.948 17.9143 0.819999C18.1223 0.692 18.2983 0.568 18.4423 0.448C18.5943 0.32 18.6903 0.22 18.7303 0.148H20.3743V5.548H21.8983ZM32.5708 3.484C32.5708 4.188 32.4348 4.816 32.1628 5.368C31.8988 5.912 31.5308 6.34 31.0588 6.652C30.5948 6.964 30.0668 7.12 29.4748 7.12C28.8828 7.12 28.3508 6.964 27.8788 6.652C27.4148 6.34 27.0468 5.912 26.7748 5.368C26.5108 4.816 26.3788 4.188 26.3788 3.484C26.3788 2.78 26.5108 2.156 26.7748 1.612C27.0468 1.06 27.4148 0.628 27.8788 0.316C28.3508 -0.00400019 28.8828 -0.164 29.4748 -0.164C30.0668 -0.164 30.5948 -0.00400019 31.0588 0.316C31.5308 0.628 31.8988 1.06 32.1628 1.612C32.4348 2.156 32.5708 2.78 32.5708 3.484ZM30.9508 3.484C30.9508 3.052 30.8868 2.676 30.7588 2.356C30.6388 2.028 30.4668 1.772 30.2428 1.588C30.0188 1.404 29.7628 1.312 29.4748 1.312C29.1788 1.312 28.9188 1.404 28.6948 1.588C28.4708 1.772 28.2948 2.028 28.1668 2.356C28.0468 2.676 27.9868 3.052 27.9868 3.484C27.9868 3.916 28.0468 4.292 28.1668 4.612C28.2948 4.932 28.4708 5.184 28.6948 5.368C28.9188 5.552 29.1788 5.644 29.4748 5.644C29.7628 5.644 30.0148 5.552 30.2308 5.368C30.4548 5.184 30.6308 4.932 30.7588 4.612C30.8868 4.284 30.9508 3.908 30.9508 3.484ZM39.1619 5.548V7H34.2899V5.548H35.9939V1.912C35.9219 2.008 35.8099 2.108 35.6579 2.212C35.5059 2.308 35.3339 2.4 35.1419 2.488C34.9499 2.576 34.7579 2.648 34.5659 2.704C34.3739 2.76 34.2019 2.788 34.0499 2.788V1.288C34.1939 1.288 34.3659 1.244 34.5659 1.156C34.7739 1.06 34.9779 0.948 35.1779 0.819999C35.3859 0.692 35.5619 0.568 35.7059 0.448C35.8579 0.32 35.9539 0.22 35.9939 0.148H37.6379V5.548H39.1619ZM49.8344 3.484C49.8344 4.188 49.6984 4.816 49.4264 5.368C49.1624 5.912 48.7944 6.34 48.3224 6.652C47.8584 6.964 47.3304 7.12 46.7384 7.12C46.1464 7.12 45.6144 6.964 45.1424 6.652C44.6784 6.34 44.3104 5.912 44.0384 5.368C43.7744 4.816 43.6424 4.188 43.6424 3.484C43.6424 2.78 43.7744 2.156 44.0384 1.612C44.3104 1.06 44.6784 0.628 45.1424 0.316C45.6144 -0.00400019 46.1464 -0.164 46.7384 -0.164C47.3304 -0.164 47.8584 -0.00400019 48.3224 0.316C48.7944 0.628 49.1624 1.06 49.4264 1.612C49.6984 2.156 49.8344 2.78 49.8344 3.484ZM48.2144 3.484C48.2144 3.052 48.1504 2.676 48.0224 2.356C47.9024 2.028 47.7304 1.772 47.5064 1.588C47.2824 1.404 47.0264 1.312 46.7384 1.312C46.4424 1.312 46.1824 1.404 45.9584 1.588C45.7344 1.772 45.5584 2.028 45.4304 2.356C45.3104 2.676 45.2504 3.052 45.2504 3.484C45.2504 3.916 45.3104 4.292 45.4304 4.612C45.5584 4.932 45.7344 5.184 45.9584 5.368C46.1824 5.552 46.4424 5.644 46.7384 5.644C47.0264 5.644 47.2784 5.552 47.4944 5.368C47.7184 5.184 47.8944 4.932 48.0224 4.612C48.1504 4.284 48.2144 3.908 48.2144 3.484ZM56.4255 5.548V7H51.5535V5.548H53.2575V1.912C53.1855 2.008 53.0735 2.108 52.9215 2.212C52.7695 2.308 52.5975 2.4 52.4055 2.488C52.2135 2.576 52.0215 2.648 51.8295 2.704C51.6375 2.76 51.4655 2.788 51.3135 2.788V1.288C51.4575 1.288 51.6295 1.244 51.8295 1.156C52.0375 1.06 52.2415 0.948 52.4415 0.819999C52.6495 0.692 52.8255 0.568 52.9695 0.448C53.1215 0.32 53.2175 0.22 53.2575 0.148H54.9015V5.548H56.4255ZM67.098 3.484C67.098 4.188 66.962 4.816 66.69 5.368C66.426 5.912 66.058 6.34 65.586 6.652C65.122 6.964 64.594 7.12 64.002 7.12C63.41 7.12 62.878 6.964 62.406 6.652C61.942 6.34 61.574 5.912 61.302 5.368C61.038 4.816 60.906 4.188 60.906 3.484C60.906 2.78 61.038 2.156 61.302 1.612C61.574 1.06 61.942 0.628 62.406 0.316C62.878 -0.00400019 63.41 -0.164 64.002 -0.164C64.594 -0.164 65.122 -0.00400019 65.586 0.316C66.058 0.628 66.426 1.06 66.69 1.612C66.962 2.156 67.098 2.78 67.098 3.484ZM65.478 3.484C65.478 3.052 65.414 2.676 65.286 2.356C65.166 2.028 64.994 1.772 64.77 1.588C64.546 1.404 64.29 1.312 64.002 1.312C63.706 1.312 63.446 1.404 63.222 1.588C62.998 1.772 62.822 2.028 62.694 2.356C62.574 2.676 62.514 3.052 62.514 3.484C62.514 3.916 62.574 4.292 62.694 4.612C62.822 4.932 62.998 5.184 63.222 5.368C63.446 5.552 63.706 5.644 64.002 5.644C64.29 5.644 64.542 5.552 64.758 5.368C64.982 5.184 65.158 4.932 65.286 4.612C65.414 4.284 65.478 3.908 65.478 3.484ZM73.6891 5.548V7H68.8171V5.548H70.5211V1.912C70.4491 2.008 70.3371 2.108 70.1851 2.212C70.0331 2.308 69.8611 2.4 69.6691 2.488C69.4771 2.576 69.2851 2.648 69.0931 2.704C68.9011 2.76 68.7291 2.788 68.5771 2.788V1.288C68.7211 1.288 68.8931 1.244 69.0931 1.156C69.3011 1.06 69.5051 0.948 69.7051 0.819999C69.9131 0.692 70.0891 0.568 70.2331 0.448C70.3851 0.32 70.4811 0.22 70.5211 0.148H72.1651V5.548H73.6891ZM84.3616 3.484C84.3616 4.188 84.2256 4.816 83.9536 5.368C83.6896 5.912 83.3216 6.34 82.8496 6.652C82.3856 6.964 81.8576 7.12 81.2656 7.12C80.6736 7.12 80.1416 6.964 79.6696 6.652C79.2056 6.34 78.8376 5.912 78.5656 5.368C78.3016 4.816 78.1696 4.188 78.1696 3.484C78.1696 2.78 78.3016 2.156 78.5656 1.612C78.8376 1.06 79.2056 0.628 79.6696 0.316C80.1416 -0.00400019 80.6736 -0.164 81.2656 -0.164C81.8576 -0.164 82.3856 -0.00400019 82.8496 0.316C83.3216 0.628 83.6896 1.06 83.9536 1.612C84.2256 2.156 84.3616 2.78 84.3616 3.484ZM82.7416 3.484C82.7416 3.052 82.6776 2.676 82.5496 2.356C82.4296 2.028 82.2576 1.772 82.0336 1.588C81.8096 1.404 81.5536 1.312 81.2656 1.312C80.9696 1.312 80.7096 1.404 80.4856 1.588C80.2616 1.772 80.0856 2.028 79.9576 2.356C79.8376 2.676 79.7776 3.052 79.7776 3.484C79.7776 3.916 79.8376 4.292 79.9576 4.612C80.0856 4.932 80.2616 5.184 80.4856 5.368C80.7096 5.552 80.9696 5.644 81.2656 5.644C81.5536 5.644 81.8056 5.552 82.0216 5.368C82.2456 5.184 82.4216 4.932 82.5496 4.612C82.6776 4.284 82.7416 3.908 82.7416 3.484ZM90.9527 5.548V7H86.0807V5.548H87.7847V1.912C87.7127 2.008 87.6007 2.108 87.4487 2.212C87.2967 2.308 87.1247 2.4 86.9327 2.488C86.7407 2.576 86.5487 2.648 86.3567 2.704C86.1647 2.76 85.9927 2.788 85.8407 2.788V1.288C85.9847 1.288 86.1567 1.244 86.3567 1.156C86.5647 1.06 86.7687 0.948 86.9687 0.819999C87.1767 0.692 87.3527 0.568 87.4967 0.448C87.6487 0.32 87.7447 0.22 87.7847 0.148H89.4287V5.548H90.9527ZM101.625 3.484C101.625 4.188 101.489 4.816 101.217 5.368C100.953 5.912 100.585 6.34 100.113 6.652C99.6492 6.964 99.1212 7.12 98.5292 7.12C97.9372 7.12 97.4052 6.964 96.9332 6.652C96.4692 6.34 96.1012 5.912 95.8292 5.368C95.5652 4.816 95.4332 4.188 95.4332 3.484C95.4332 2.78 95.5652 2.156 95.8292 1.612C96.1012 1.06 96.4692 0.628 96.9332 0.316C97.4052 -0.00400019 97.9372 -0.164 98.5292 -0.164C99.1212 -0.164 99.6492 -0.00400019 100.113 0.316C100.585 0.628 100.953 1.06 101.217 1.612C101.489 2.156 101.625 2.78 101.625 3.484ZM100.005 3.484C100.005 3.052 99.9412 2.676 99.8132 2.356C99.6932 2.028 99.5212 1.772 99.2972 1.588C99.0732 1.404 98.8172 1.312 98.5292 1.312C98.2332 1.312 97.9732 1.404 97.7492 1.588C97.5252 1.772 97.3492 2.028 97.2212 2.356C97.1012 2.676 97.0412 3.052 97.0412 3.484C97.0412 3.916 97.1012 4.292 97.2212 4.612C97.3492 4.932 97.5252 5.184 97.7492 5.368C97.9732 5.552 98.2332 5.644 98.5292 5.644C98.8172 5.644 99.0692 5.552 99.2852 5.368C99.5092 5.184 99.6852 4.932 99.8132 4.612C99.9412 4.284 100.005 3.908 100.005 3.484ZM108.216 5.548V7H103.344V5.548H105.048V1.912C104.976 2.008 104.864 2.108 104.712 2.212C104.56 2.308 104.388 2.4 104.196 2.488C104.004 2.576 103.812 2.648 103.62 2.704C103.428 2.76 103.256 2.788 103.104 2.788V1.288C103.248 1.288 103.42 1.244 103.62 1.156C103.828 1.06 104.032 0.948 104.232 0.819999C104.44 0.692 104.616 0.568 104.76 0.448C104.912 0.32 105.008 0.22 105.048 0.148H106.692V5.548H108.216ZM-19.22 17.484C-19.22 18.188 -19.356 18.816 -19.628 19.368C-19.892 19.912 -20.26 20.34 -20.732 20.652C-21.196 20.964 -21.724 21.12 -22.316 21.12C-22.908 21.12 -23.44 20.964 -23.912 20.652C-24.376 20.34 -24.744 19.912 -25.016 19.368C-25.28 18.816 -25.412 18.188 -25.412 17.484C-25.412 16.78 -25.28 16.156 -25.016 15.612C-24.744 15.06 -24.376 14.628 -23.912 14.316C-23.44 13.996 -22.908 13.836 -22.316 13.836C-21.724 13.836 -21.196 13.996 -20.732 14.316C-20.26 14.628 -19.892 15.06 -19.628 15.612C-19.356 16.156 -19.22 16.78 -19.22 17.484ZM-20.84 17.484C-20.84 17.052 -20.904 16.676 -21.032 16.356C-21.152 16.028 -21.324 15.772 -21.548 15.588C-21.772 15.404 -22.028 15.312 -22.316 15.312C-22.612 15.312 -22.872 15.404 -23.096 15.588C-23.32 15.772 -23.496 16.028 -23.624 16.356C-23.744 16.676 -23.804 17.052 -23.804 17.484C-23.804 17.916 -23.744 18.292 -23.624 18.612C-23.496 18.932 -23.32 19.184 -23.096 19.368C-22.872 19.552 -22.612 19.644 -22.316 19.644C-22.028 19.644 -21.776 19.552 -21.56 19.368C-21.336 19.184 -21.16 18.932 -21.032 18.612C-20.904 18.284 -20.84 17.908 -20.84 17.484ZM-12.6289 19.548V21H-17.5009V19.548H-15.7969V15.912C-15.8689 16.008 -15.9809 16.108 -16.1329 16.212C-16.2849 16.308 -16.4569 16.4 -16.6489 16.488C-16.8409 16.576 -17.0329 16.648 -17.2249 16.704C-17.4169 16.76 -17.5889 16.788 -17.7409 16.788V15.288C-17.5969 15.288 -17.4249 15.244 -17.2249 15.156C-17.0169 15.06 -16.8129 14.948 -16.6129 14.82C-16.4049 14.692 -16.2289 14.568 -16.0849 14.448C-15.9329 14.32 -15.8369 14.22 -15.7969 14.148H-14.1529V19.548H-12.6289ZM-1.95641 17.484C-1.95641 18.188 -2.09241 18.816 -2.36441 19.368C-2.62841 19.912 -2.99641 20.34 -3.46841 20.652C-3.93241 20.964 -4.46041 21.12 -5.05241 21.12C-5.64441 21.12 -6.17641 20.964 -6.64841 20.652C-7.11241 20.34 -7.48041 19.912 -7.75241 19.368C-8.01641 18.816 -8.14841 18.188 -8.14841 17.484C-8.14841 16.78 -8.01641 16.156 -7.75241 15.612C-7.48041 15.06 -7.11241 14.628 -6.64841 14.316C-6.17641 13.996 -5.64441 13.836 -5.05241 13.836C-4.46041 13.836 -3.93241 13.996 -3.46841 14.316C-2.99641 14.628 -2.62841 15.06 -2.36441 15.612C-2.09241 16.156 -1.95641 16.78 -1.95641 17.484ZM-3.57641 17.484C-3.57641 17.052 -3.64041 16.676 -3.76841 16.356C-3.88841 16.028 -4.06041 15.772 -4.28441 15.588C-4.50841 15.404 -4.76441 15.312 -5.05241 15.312C-5.34841 15.312 -5.60841 15.404 -5.83241 15.588C-6.05641 15.772 -6.23241 16.028 -6.36041 16.356C-6.48041 16.676 -6.54041 17.052 -6.54041 17.484C-6.54041 17.916 -6.48041 18.292 -6.36041 18.612C-6.23241 18.932 -6.05641 19.184 -5.83241 19.368C-5.60841 19.552 -5.34841 19.644 -5.05241 19.644C-4.76441 19.644 -4.51241 19.552 -4.29641 19.368C-4.07241 19.184 -3.89641 18.932 -3.76841 18.612C-3.64041 18.284 -3.57641 17.908 -3.57641 17.484ZM4.63469 19.548V21H-0.237312V19.548H1.46669V15.912C1.39469 16.008 1.28269 16.108 1.13069 16.212C0.978688 16.308 0.806688 16.4 0.614688 16.488C0.422688 16.576 0.230688 16.648 0.0386881 16.704C-0.153312 16.76 -0.325312 16.788 -0.477312 16.788V15.288C-0.333312 15.288 -0.161312 15.244 0.0386881 15.156C0.246688 15.06 0.450688 14.948 0.650688 14.82C0.858688 14.692 1.03469 14.568 1.17869 14.448C1.33069 14.32 1.42669 14.22 1.46669 14.148H3.11069V19.548H4.63469ZM15.3072 17.484C15.3072 18.188 15.1712 18.816 14.8992 19.368C14.6352 19.912 14.2672 20.34 13.7952 20.652C13.3312 20.964 12.8032 21.12 12.2112 21.12C11.6192 21.12 11.0872 20.964 10.6152 20.652C10.1512 20.34 9.78319 19.912 9.51119 19.368C9.24719 18.816 9.11519 18.188 9.11519 17.484C9.11519 16.78 9.24719 16.156 9.51119 15.612C9.78319 15.06 10.1512 14.628 10.6152 14.316C11.0872 13.996 11.6192 13.836 12.2112 13.836C12.8032 13.836 13.3312 13.996 13.7952 14.316C14.2672 14.628 14.6352 15.06 14.8992 15.612C15.1712 16.156 15.3072 16.78 15.3072 17.484ZM13.6872 17.484C13.6872 17.052 13.6232 16.676 13.4952 16.356C13.3752 16.028 13.2032 15.772 12.9792 15.588C12.7552 15.404 12.4992 15.312 12.2112 15.312C11.9152 15.312 11.6552 15.404 11.4312 15.588C11.2072 15.772 11.0312 16.028 10.9032 16.356C10.7832 16.676 10.7232 17.052 10.7232 17.484C10.7232 17.916 10.7832 18.292 10.9032 18.612C11.0312 18.932 11.2072 19.184 11.4312 19.368C11.6552 19.552 11.9152 19.644 12.2112 19.644C12.4992 19.644 12.7512 19.552 12.9672 19.368C13.1912 19.184 13.3672 18.932 13.4952 18.612C13.6232 18.284 13.6872 17.908 13.6872 17.484ZM21.8983 19.548V21H17.0263V19.548H18.7303V15.912C18.6583 16.008 18.5463 16.108 18.3943 16.212C18.2423 16.308 18.0703 16.4 17.8783 16.488C17.6863 16.576 17.4943 16.648 17.3023 16.704C17.1103 16.76 16.9383 16.788 16.7863 16.788V15.288C16.9303 15.288 17.1023 15.244 17.3023 15.156C17.5103 15.06 17.7143 14.948 17.9143 14.82C18.1223 14.692 18.2983 14.568 18.4423 14.448C18.5943 14.32 18.6903 14.22 18.7303 14.148H20.3743V19.548H21.8983ZM32.5708 17.484C32.5708 18.188 32.4348 18.816 32.1628 19.368C31.8988 19.912 31.5308 20.34 31.0588 20.652C30.5948 20.964 30.0668 21.12 29.4748 21.12C28.8828 21.12 28.3508 20.964 27.8788 20.652C27.4148 20.34 27.0468 19.912 26.7748 19.368C26.5108 18.816 26.3788 18.188 26.3788 17.484C26.3788 16.78 26.5108 16.156 26.7748 15.612C27.0468 15.06 27.4148 14.628 27.8788 14.316C28.3508 13.996 28.8828 13.836 29.4748 13.836C30.0668 13.836 30.5948 13.996 31.0588 14.316C31.5308 14.628 31.8988 15.06 32.1628 15.612C32.4348 16.156 32.5708 16.78 32.5708 17.484ZM30.9508 17.484C30.9508 17.052 30.8868 16.676 30.7588 16.356C30.6388 16.028 30.4668 15.772 30.2428 15.588C30.0188 15.404 29.7628 15.312 29.4748 15.312C29.1788 15.312 28.9188 15.404 28.6948 15.588C28.4708 15.772 28.2948 16.028 28.1668 16.356C28.0468 16.676 27.9868 17.052 27.9868 17.484C27.9868 17.916 28.0468 18.292 28.1668 18.612C28.2948 18.932 28.4708 19.184 28.6948 19.368C28.9188 19.552 29.1788 19.644 29.4748 19.644C29.7628 19.644 30.0148 19.552 30.2308 19.368C30.4548 19.184 30.6308 18.932 30.7588 18.612C30.8868 18.284 30.9508 17.908 30.9508 17.484ZM39.1619 19.548V21H34.2899V19.548H35.9939V15.912C35.9219 16.008 35.8099 16.108 35.6579 16.212C35.5059 16.308 35.3339 16.4 35.1419 16.488C34.9499 16.576 34.7579 16.648 34.5659 16.704C34.3739 16.76 34.2019 16.788 34.0499 16.788V15.288C34.1939 15.288 34.3659 15.244 34.5659 15.156C34.7739 15.06 34.9779 14.948 35.1779 14.82C35.3859 14.692 35.5619 14.568 35.7059 14.448C35.8579 14.32 35.9539 14.22 35.9939 14.148H37.6379V19.548H39.1619ZM49.8344 17.484C49.8344 18.188 49.6984 18.816 49.4264 19.368C49.1624 19.912 48.7944 20.34 48.3224 20.652C47.8584 20.964 47.3304 21.12 46.7384 21.12C46.1464 21.12 45.6144 20.964 45.1424 20.652C44.6784 20.34 44.3104 19.912 44.0384 19.368C43.7744 18.816 43.6424 18.188 43.6424 17.484C43.6424 16.78 43.7744 16.156 44.0384 15.612C44.3104 15.06 44.6784 14.628 45.1424 14.316C45.6144 13.996 46.1464 13.836 46.7384 13.836C47.3304 13.836 47.8584 13.996 48.3224 14.316C48.7944 14.628 49.1624 15.06 49.4264 15.612C49.6984 16.156 49.8344 16.78 49.8344 17.484ZM48.2144 17.484C48.2144 17.052 48.1504 16.676 48.0224 16.356C47.9024 16.028 47.7304 15.772 47.5064 15.588C47.2824 15.404 47.0264 15.312 46.7384 15.312C46.4424 15.312 46.1824 15.404 45.9584 15.588C45.7344 15.772 45.5584 16.028 45.4304 16.356C45.3104 16.676 45.2504 17.052 45.2504 17.484C45.2504 17.916 45.3104 18.292 45.4304 18.612C45.5584 18.932 45.7344 19.184 45.9584 19.368C46.1824 19.552 46.4424 19.644 46.7384 19.644C47.0264 19.644 47.2784 19.552 47.4944 19.368C47.7184 19.184 47.8944 18.932 48.0224 18.612C48.1504 18.284 48.2144 17.908 48.2144 17.484ZM56.4255 19.548V21H51.5535V19.548H53.2575V15.912C53.1855 16.008 53.0735 16.108 52.9215 16.212C52.7695 16.308 52.5975 16.4 52.4055 16.488C52.2135 16.576 52.0215 16.648 51.8295 16.704C51.6375 16.76 51.4655 16.788 51.3135 16.788V15.288C51.4575 15.288 51.6295 15.244 51.8295 15.156C52.0375 15.06 52.2415 14.948 52.4415 14.82C52.6495 14.692 52.8255 14.568 52.9695 14.448C53.1215 14.32 53.2175 14.22 53.2575 14.148H54.9015V19.548H56.4255ZM67.098 17.484C67.098 18.188 66.962 18.816 66.69 19.368C66.426 19.912 66.058 20.34 65.586 20.652C65.122 20.964 64.594 21.12 64.002 21.12C63.41 21.12 62.878 20.964 62.406 20.652C61.942 20.34 61.574 19.912 61.302 19.368C61.038 18.816 60.906 18.188 60.906 17.484C60.906 16.78 61.038 16.156 61.302 15.612C61.574 15.06 61.942 14.628 62.406 14.316C62.878 13.996 63.41 13.836 64.002 13.836C64.594 13.836 65.122 13.996 65.586 14.316C66.058 14.628 66.426 15.06 66.69 15.612C66.962 16.156 67.098 16.78 67.098 17.484ZM65.478 17.484C65.478 17.052 65.414 16.676 65.286 16.356C65.166 16.028 64.994 15.772 64.77 15.588C64.546 15.404 64.29 15.312 64.002 15.312C63.706 15.312 63.446 15.404 63.222 15.588C62.998 15.772 62.822 16.028 62.694 16.356C62.574 16.676 62.514 17.052 62.514 17.484C62.514 17.916 62.574 18.292 62.694 18.612C62.822 18.932 62.998 19.184 63.222 19.368C63.446 19.552 63.706 19.644 64.002 19.644C64.29 19.644 64.542 19.552 64.758 19.368C64.982 19.184 65.158 18.932 65.286 18.612C65.414 18.284 65.478 17.908 65.478 17.484ZM73.6891 19.548V21H68.8171V19.548H70.5211V15.912C70.4491 16.008 70.3371 16.108 70.1851 16.212C70.0331 16.308 69.8611 16.4 69.6691 16.488C69.4771 16.576 69.2851 16.648 69.0931 16.704C68.9011 16.76 68.7291 16.788 68.5771 16.788V15.288C68.7211 15.288 68.8931 15.244 69.0931 15.156C69.3011 15.06 69.5051 14.948 69.7051 14.82C69.9131 14.692 70.0891 14.568 70.2331 14.448C70.3851 14.32 70.4811 14.22 70.5211 14.148H72.1651V19.548H73.6891ZM84.3616 17.484C84.3616 18.188 84.2256 18.816 83.9536 19.368C83.6896 19.912 83.3216 20.34 82.8496 20.652C82.3856 20.964 81.8576 21.12 81.2656 21.12C80.6736 21.12 80.1416 20.964 79.6696 20.652C79.2056 20.34 78.8376 19.912 78.5656 19.368C78.3016 18.816 78.1696 18.188 78.1696 17.484C78.1696 16.78 78.3016 16.156 78.5656 15.612C78.8376 15.06 79.2056 14.628 79.6696 14.316C80.1416 13.996 80.6736 13.836 81.2656 13.836C81.8576 13.836 82.3856 13.996 82.8496 14.316C83.3216 14.628 83.6896 15.06 83.9536 15.612C84.2256 16.156 84.3616 16.78 84.3616 17.484ZM82.7416 17.484C82.7416 17.052 82.6776 16.676 82.5496 16.356C82.4296 16.028 82.2576 15.772 82.0336 15.588C81.8096 15.404 81.5536 15.312 81.2656 15.312C80.9696 15.312 80.7096 15.404 80.4856 15.588C80.2616 15.772 80.0856 16.028 79.9576 16.356C79.8376 16.676 79.7776 17.052 79.7776 17.484C79.7776 17.916 79.8376 18.292 79.9576 18.612C80.0856 18.932 80.2616 19.184 80.4856 19.368C80.7096 19.552 80.9696 19.644 81.2656 19.644C81.5536 19.644 81.8056 19.552 82.0216 19.368C82.2456 19.184 82.4216 18.932 82.5496 18.612C82.6776 18.284 82.7416 17.908 82.7416 17.484ZM90.9527 19.548V21H86.0807V19.548H87.7847V15.912C87.7127 16.008 87.6007 16.108 87.4487 16.212C87.2967 16.308 87.1247 16.4 86.9327 16.488C86.7407 16.576 86.5487 16.648 86.3567 16.704C86.1647 16.76 85.9927 16.788 85.8407 16.788V15.288C85.9847 15.288 86.1567 15.244 86.3567 15.156C86.5647 15.06 86.7687 14.948 86.9687 14.82C87.1767 14.692 87.3527 14.568 87.4967 14.448C87.6487 14.32 87.7447 14.22 87.7847 14.148H89.4287V19.548H90.9527ZM101.625 17.484C101.625 18.188 101.489 18.816 101.217 19.368C100.953 19.912 100.585 20.34 100.113 20.652C99.6492 20.964 99.1212 21.12 98.5292 21.12C97.9372 21.12 97.4052 20.964 96.9332 20.652C96.4692 20.34 96.1012 19.912 95.8292 19.368C95.5652 18.816 95.4332 18.188 95.4332 17.484C95.4332 16.78 95.5652 16.156 95.8292 15.612C96.1012 15.06 96.4692 14.628 96.9332 14.316C97.4052 13.996 97.9372 13.836 98.5292 13.836C99.1212 13.836 99.6492 13.996 100.113 14.316C100.585 14.628 100.953 15.06 101.217 15.612C101.489 16.156 101.625 16.78 101.625 17.484ZM100.005 17.484C100.005 17.052 99.9412 16.676 99.8132 16.356C99.6932 16.028 99.5212 15.772 99.2972 15.588C99.0732 15.404 98.8172 15.312 98.5292 15.312C98.2332 15.312 97.9732 15.404 97.7492 15.588C97.5252 15.772 97.3492 16.028 97.2212 16.356C97.1012 16.676 97.0412 17.052 97.0412 17.484C97.0412 17.916 97.1012 18.292 97.2212 18.612C97.3492 18.932 97.5252 19.184 97.7492 19.368C97.9732 19.552 98.2332 19.644 98.5292 19.644C98.8172 19.644 99.0692 19.552 99.2852 19.368C99.5092 19.184 99.6852 18.932 99.8132 18.612C99.9412 18.284 100.005 17.908 100.005 17.484ZM108.216 19.548V21H103.344V19.548H105.048V15.912C104.976 16.008 104.864 16.108 104.712 16.212C104.56 16.308 104.388 16.4 104.196 16.488C104.004 16.576 103.812 16.648 103.62 16.704C103.428 16.76 103.256 16.788 103.104 16.788V15.288C103.248 15.288 103.42 15.244 103.62 15.156C103.828 15.06 104.032 14.948 104.232 14.82C104.44 14.692 104.616 14.568 104.76 14.448C104.912 14.32 105.008 14.22 105.048 14.148H106.692V19.548H108.216ZM-19.22 31.484C-19.22 32.188 -19.356 32.816 -19.628 33.368C-19.892 33.912 -20.26 34.34 -20.732 34.652C-21.196 34.964 -21.724 35.12 -22.316 35.12C-22.908 35.12 -23.44 34.964 -23.912 34.652C-24.376 34.34 -24.744 33.912 -25.016 33.368C-25.28 32.816 -25.412 32.188 -25.412 31.484C-25.412 30.78 -25.28 30.156 -25.016 29.612C-24.744 29.06 -24.376 28.628 -23.912 28.316C-23.44 27.996 -22.908 27.836 -22.316 27.836C-21.724 27.836 -21.196 27.996 -20.732 28.316C-20.26 28.628 -19.892 29.06 -19.628 29.612C-19.356 30.156 -19.22 30.78 -19.22 31.484ZM-20.84 31.484C-20.84 31.052 -20.904 30.676 -21.032 30.356C-21.152 30.028 -21.324 29.772 -21.548 29.588C-21.772 29.404 -22.028 29.312 -22.316 29.312C-22.612 29.312 -22.872 29.404 -23.096 29.588C-23.32 29.772 -23.496 30.028 -23.624 30.356C-23.744 30.676 -23.804 31.052 -23.804 31.484C-23.804 31.916 -23.744 32.292 -23.624 32.612C-23.496 32.932 -23.32 33.184 -23.096 33.368C-22.872 33.552 -22.612 33.644 -22.316 33.644C-22.028 33.644 -21.776 33.552 -21.56 33.368C-21.336 33.184 -21.16 32.932 -21.032 32.612C-20.904 32.284 -20.84 31.908 -20.84 31.484ZM-12.6289 33.548V35H-17.5009V33.548H-15.7969V29.912C-15.8689 30.008 -15.9809 30.108 -16.1329 30.212C-16.2849 30.308 -16.4569 30.4 -16.6489 30.488C-16.8409 30.576 -17.0329 30.648 -17.2249 30.704C-17.4169 30.76 -17.5889 30.788 -17.7409 30.788V29.288C-17.5969 29.288 -17.4249 29.244 -17.2249 29.156C-17.0169 29.06 -16.8129 28.948 -16.6129 28.82C-16.4049 28.692 -16.2289 28.568 -16.0849 28.448C-15.9329 28.32 -15.8369 28.22 -15.7969 28.148H-14.1529V33.548H-12.6289ZM-1.95641 31.484C-1.95641 32.188 -2.09241 32.816 -2.36441 33.368C-2.62841 33.912 -2.99641 34.34 -3.46841 34.652C-3.93241 34.964 -4.46041 35.12 -5.05241 35.12C-5.64441 35.12 -6.17641 34.964 -6.64841 34.652C-7.11241 34.34 -7.48041 33.912 -7.75241 33.368C-8.01641 32.816 -8.14841 32.188 -8.14841 31.484C-8.14841 30.78 -8.01641 30.156 -7.75241 29.612C-7.48041 29.06 -7.11241 28.628 -6.64841 28.316C-6.17641 27.996 -5.64441 27.836 -5.05241 27.836C-4.46041 27.836 -3.93241 27.996 -3.46841 28.316C-2.99641 28.628 -2.62841 29.06 -2.36441 29.612C-2.09241 30.156 -1.95641 30.78 -1.95641 31.484ZM-3.57641 31.484C-3.57641 31.052 -3.64041 30.676 -3.76841 30.356C-3.88841 30.028 -4.06041 29.772 -4.28441 29.588C-4.50841 29.404 -4.76441 29.312 -5.05241 29.312C-5.34841 29.312 -5.60841 29.404 -5.83241 29.588C-6.05641 29.772 -6.23241 30.028 -6.36041 30.356C-6.48041 30.676 -6.54041 31.052 -6.54041 31.484C-6.54041 31.916 -6.48041 32.292 -6.36041 32.612C-6.23241 32.932 -6.05641 33.184 -5.83241 33.368C-5.60841 33.552 -5.34841 33.644 -5.05241 33.644C-4.76441 33.644 -4.51241 33.552 -4.29641 33.368C-4.07241 33.184 -3.89641 32.932 -3.76841 32.612C-3.64041 32.284 -3.57641 31.908 -3.57641 31.484ZM4.63469 33.548V35H-0.237312V33.548H1.46669V29.912C1.39469 30.008 1.28269 30.108 1.13069 30.212C0.978688 30.308 0.806688 30.4 0.614688 30.488C0.422688 30.576 0.230688 30.648 0.0386881 30.704C-0.153312 30.76 -0.325312 30.788 -0.477312 30.788V29.288C-0.333312 29.288 -0.161312 29.244 0.0386881 29.156C0.246688 29.06 0.450688 28.948 0.650688 28.82C0.858688 28.692 1.03469 28.568 1.17869 28.448C1.33069 28.32 1.42669 28.22 1.46669 28.148H3.11069V33.548H4.63469ZM15.3072 31.484C15.3072 32.188 15.1712 32.816 14.8992 33.368C14.6352 33.912 14.2672 34.34 13.7952 34.652C13.3312 34.964 12.8032 35.12 12.2112 35.12C11.6192 35.12 11.0872 34.964 10.6152 34.652C10.1512 34.34 9.78319 33.912 9.51119 33.368C9.24719 32.816 9.11519 32.188 9.11519 31.484C9.11519 30.78 9.24719 30.156 9.51119 29.612C9.78319 29.06 10.1512 28.628 10.6152 28.316C11.0872 27.996 11.6192 27.836 12.2112 27.836C12.8032 27.836 13.3312 27.996 13.7952 28.316C14.2672 28.628 14.6352 29.06 14.8992 29.612C15.1712 30.156 15.3072 30.78 15.3072 31.484ZM13.6872 31.484C13.6872 31.052 13.6232 30.676 13.4952 30.356C13.3752 30.028 13.2032 29.772 12.9792 29.588C12.7552 29.404 12.4992 29.312 12.2112 29.312C11.9152 29.312 11.6552 29.404 11.4312 29.588C11.2072 29.772 11.0312 30.028 10.9032 30.356C10.7832 30.676 10.7232 31.052 10.7232 31.484C10.7232 31.916 10.7832 32.292 10.9032 32.612C11.0312 32.932 11.2072 33.184 11.4312 33.368C11.6552 33.552 11.9152 33.644 12.2112 33.644C12.4992 33.644 12.7512 33.552 12.9672 33.368C13.1912 33.184 13.3672 32.932 13.4952 32.612C13.6232 32.284 13.6872 31.908 13.6872 31.484ZM21.8983 33.548V35H17.0263V33.548H18.7303V29.912C18.6583 30.008 18.5463 30.108 18.3943 30.212C18.2423 30.308 18.0703 30.4 17.8783 30.488C17.6863 30.576 17.4943 30.648 17.3023 30.704C17.1103 30.76 16.9383 30.788 16.7863 30.788V29.288C16.9303 29.288 17.1023 29.244 17.3023 29.156C17.5103 29.06 17.7143 28.948 17.9143 28.82C18.1223 28.692 18.2983 28.568 18.4423 28.448C18.5943 28.32 18.6903 28.22 18.7303 28.148H20.3743V33.548H21.8983ZM32.5708 31.484C32.5708 32.188 32.4348 32.816 32.1628 33.368C31.8988 33.912 31.5308 34.34 31.0588 34.652C30.5948 34.964 30.0668 35.12 29.4748 35.12C28.8828 35.12 28.3508 34.964 27.8788 34.652C27.4148 34.34 27.0468 33.912 26.7748 33.368C26.5108 32.816 26.3788 32.188 26.3788 31.484C26.3788 30.78 26.5108 30.156 26.7748 29.612C27.0468 29.06 27.4148 28.628 27.8788 28.316C28.3508 27.996 28.8828 27.836 29.4748 27.836C30.0668 27.836 30.5948 27.996 31.0588 28.316C31.5308 28.628 31.8988 29.06 32.1628 29.612C32.4348 30.156 32.5708 30.78 32.5708 31.484ZM30.9508 31.484C30.9508 31.052 30.8868 30.676 30.7588 30.356C30.6388 30.028 30.4668 29.772 30.2428 29.588C30.0188 29.404 29.7628 29.312 29.4748 29.312C29.1788 29.312 28.9188 29.404 28.6948 29.588C28.4708 29.772 28.2948 30.028 28.1668 30.356C28.0468 30.676 27.9868 31.052 27.9868 31.484C27.9868 31.916 28.0468 32.292 28.1668 32.612C28.2948 32.932 28.4708 33.184 28.6948 33.368C28.9188 33.552 29.1788 33.644 29.4748 33.644C29.7628 33.644 30.0148 33.552 30.2308 33.368C30.4548 33.184 30.6308 32.932 30.7588 32.612C30.8868 32.284 30.9508 31.908 30.9508 31.484ZM39.1619 33.548V35H34.2899V33.548H35.9939V29.912C35.9219 30.008 35.8099 30.108 35.6579 30.212C35.5059 30.308 35.3339 30.4 35.1419 30.488C34.9499 30.576 34.7579 30.648 34.5659 30.704C34.3739 30.76 34.2019 30.788 34.0499 30.788V29.288C34.1939 29.288 34.3659 29.244 34.5659 29.156C34.7739 29.06 34.9779 28.948 35.1779 28.82C35.3859 28.692 35.5619 28.568 35.7059 28.448C35.8579 28.32 35.9539 28.22 35.9939 28.148H37.6379V33.548H39.1619ZM49.8344 31.484C49.8344 32.188 49.6984 32.816 49.4264 33.368C49.1624 33.912 48.7944 34.34 48.3224 34.652C47.8584 34.964 47.3304 35.12 46.7384 35.12C46.1464 35.12 45.6144 34.964 45.1424 34.652C44.6784 34.34 44.3104 33.912 44.0384 33.368C43.7744 32.816 43.6424 32.188 43.6424 31.484C43.6424 30.78 43.7744 30.156 44.0384 29.612C44.3104 29.06 44.6784 28.628 45.1424 28.316C45.6144 27.996 46.1464 27.836 46.7384 27.836C47.3304 27.836 47.8584 27.996 48.3224 28.316C48.7944 28.628 49.1624 29.06 49.4264 29.612C49.6984 30.156 49.8344 30.78 49.8344 31.484ZM48.2144 31.484C48.2144 31.052 48.1504 30.676 48.0224 30.356C47.9024 30.028 47.7304 29.772 47.5064 29.588C47.2824 29.404 47.0264 29.312 46.7384 29.312C46.4424 29.312 46.1824 29.404 45.9584 29.588C45.7344 29.772 45.5584 30.028 45.4304 30.356C45.3104 30.676 45.2504 31.052 45.2504 31.484C45.2504 31.916 45.3104 32.292 45.4304 32.612C45.5584 32.932 45.7344 33.184 45.9584 33.368C46.1824 33.552 46.4424 33.644 46.7384 33.644C47.0264 33.644 47.2784 33.552 47.4944 33.368C47.7184 33.184 47.8944 32.932 48.0224 32.612C48.1504 32.284 48.2144 31.908 48.2144 31.484ZM56.4255 33.548V35H51.5535V33.548H53.2575V29.912C53.1855 30.008 53.0735 30.108 52.9215 30.212C52.7695 30.308 52.5975 30.4 52.4055 30.488C52.2135 30.576 52.0215 30.648 51.8295 30.704C51.6375 30.76 51.4655 30.788 51.3135 30.788V29.288C51.4575 29.288 51.6295 29.244 51.8295 29.156C52.0375 29.06 52.2415 28.948 52.4415 28.82C52.6495 28.692 52.8255 28.568 52.9695 28.448C53.1215 28.32 53.2175 28.22 53.2575 28.148H54.9015V33.548H56.4255ZM67.098 31.484C67.098 32.188 66.962 32.816 66.69 33.368C66.426 33.912 66.058 34.34 65.586 34.652C65.122 34.964 64.594 35.12 64.002 35.12C63.41 35.12 62.878 34.964 62.406 34.652C61.942 34.34 61.574 33.912 61.302 33.368C61.038 32.816 60.906 32.188 60.906 31.484C60.906 30.78 61.038 30.156 61.302 29.612C61.574 29.06 61.942 28.628 62.406 28.316C62.878 27.996 63.41 27.836 64.002 27.836C64.594 27.836 65.122 27.996 65.586 28.316C66.058 28.628 66.426 29.06 66.69 29.612C66.962 30.156 67.098 30.78 67.098 31.484ZM65.478 31.484C65.478 31.052 65.414 30.676 65.286 30.356C65.166 30.028 64.994 29.772 64.77 29.588C64.546 29.404 64.29 29.312 64.002 29.312C63.706 29.312 63.446 29.404 63.222 29.588C62.998 29.772 62.822 30.028 62.694 30.356C62.574 30.676 62.514 31.052 62.514 31.484C62.514 31.916 62.574 32.292 62.694 32.612C62.822 32.932 62.998 33.184 63.222 33.368C63.446 33.552 63.706 33.644 64.002 33.644C64.29 33.644 64.542 33.552 64.758 33.368C64.982 33.184 65.158 32.932 65.286 32.612C65.414 32.284 65.478 31.908 65.478 31.484ZM73.6891 33.548V35H68.8171V33.548H70.5211V29.912C70.4491 30.008 70.3371 30.108 70.1851 30.212C70.0331 30.308 69.8611 30.4 69.6691 30.488C69.4771 30.576 69.2851 30.648 69.0931 30.704C68.9011 30.76 68.7291 30.788 68.5771 30.788V29.288C68.7211 29.288 68.8931 29.244 69.0931 29.156C69.3011 29.06 69.5051 28.948 69.7051 28.82C69.9131 28.692 70.0891 28.568 70.2331 28.448C70.3851 28.32 70.4811 28.22 70.5211 28.148H72.1651V33.548H73.6891ZM84.3616 31.484C84.3616 32.188 84.2256 32.816 83.9536 33.368C83.6896 33.912 83.3216 34.34 82.8496 34.652C82.3856 34.964 81.8576 35.12 81.2656 35.12C80.6736 35.12 80.1416 34.964 79.6696 34.652C79.2056 34.34 78.8376 33.912 78.5656 33.368C78.3016 32.816 78.1696 32.188 78.1696 31.484C78.1696 30.78 78.3016 30.156 78.5656 29.612C78.8376 29.06 79.2056 28.628 79.6696 28.316C80.1416 27.996 80.6736 27.836 81.2656 27.836C81.8576 27.836 82.3856 27.996 82.8496 28.316C83.3216 28.628 83.6896 29.06 83.9536 29.612C84.2256 30.156 84.3616 30.78 84.3616 31.484ZM82.7416 31.484C82.7416 31.052 82.6776 30.676 82.5496 30.356C82.4296 30.028 82.2576 29.772 82.0336 29.588C81.8096 29.404 81.5536 29.312 81.2656 29.312C80.9696 29.312 80.7096 29.404 80.4856 29.588C80.2616 29.772 80.0856 30.028 79.9576 30.356C79.8376 30.676 79.7776 31.052 79.7776 31.484C79.7776 31.916 79.8376 32.292 79.9576 32.612C80.0856 32.932 80.2616 33.184 80.4856 33.368C80.7096 33.552 80.9696 33.644 81.2656 33.644C81.5536 33.644 81.8056 33.552 82.0216 33.368C82.2456 33.184 82.4216 32.932 82.5496 32.612C82.6776 32.284 82.7416 31.908 82.7416 31.484ZM90.9527 33.548V35H86.0807V33.548H87.7847V29.912C87.7127 30.008 87.6007 30.108 87.4487 30.212C87.2967 30.308 87.1247 30.4 86.9327 30.488C86.7407 30.576 86.5487 30.648 86.3567 30.704C86.1647 30.76 85.9927 30.788 85.8407 30.788V29.288C85.9847 29.288 86.1567 29.244 86.3567 29.156C86.5647 29.06 86.7687 28.948 86.9687 28.82C87.1767 28.692 87.3527 28.568 87.4967 28.448C87.6487 28.32 87.7447 28.22 87.7847 28.148H89.4287V33.548H90.9527ZM101.625 31.484C101.625 32.188 101.489 32.816 101.217 33.368C100.953 33.912 100.585 34.34 100.113 34.652C99.6492 34.964 99.1212 35.12 98.5292 35.12C97.9372 35.12 97.4052 34.964 96.9332 34.652C96.4692 34.34 96.1012 33.912 95.8292 33.368C95.5652 32.816 95.4332 32.188 95.4332 31.484C95.4332 30.78 95.5652 30.156 95.8292 29.612C96.1012 29.06 96.4692 28.628 96.9332 28.316C97.4052 27.996 97.9372 27.836 98.5292 27.836C99.1212 27.836 99.6492 27.996 100.113 28.316C100.585 28.628 100.953 29.06 101.217 29.612C101.489 30.156 101.625 30.78 101.625 31.484ZM100.005 31.484C100.005 31.052 99.9412 30.676 99.8132 30.356C99.6932 30.028 99.5212 29.772 99.2972 29.588C99.0732 29.404 98.8172 29.312 98.5292 29.312C98.2332 29.312 97.9732 29.404 97.7492 29.588C97.5252 29.772 97.3492 30.028 97.2212 30.356C97.1012 30.676 97.0412 31.052 97.0412 31.484C97.0412 31.916 97.1012 32.292 97.2212 32.612C97.3492 32.932 97.5252 33.184 97.7492 33.368C97.9732 33.552 98.2332 33.644 98.5292 33.644C98.8172 33.644 99.0692 33.552 99.2852 33.368C99.5092 33.184 99.6852 32.932 99.8132 32.612C99.9412 32.284 100.005 31.908 100.005 31.484ZM108.216 33.548V35H103.344V33.548H105.048V29.912C104.976 30.008 104.864 30.108 104.712 30.212C104.56 30.308 104.388 30.4 104.196 30.488C104.004 30.576 103.812 30.648 103.62 30.704C103.428 30.76 103.256 30.788 103.104 30.788V29.288C103.248 29.288 103.42 29.244 103.62 29.156C103.828 29.06 104.032 28.948 104.232 28.82C104.44 28.692 104.616 28.568 104.76 28.448C104.912 28.32 105.008 28.22 105.048 28.148H106.692V33.548H108.216ZM-19.22 45.484C-19.22 46.188 -19.356 46.816 -19.628 47.368C-19.892 47.912 -20.26 48.34 -20.732 48.652C-21.196 48.964 -21.724 49.12 -22.316 49.12C-22.908 49.12 -23.44 48.964 -23.912 48.652C-24.376 48.34 -24.744 47.912 -25.016 47.368C-25.28 46.816 -25.412 46.188 -25.412 45.484C-25.412 44.78 -25.28 44.156 -25.016 43.612C-24.744 43.06 -24.376 42.628 -23.912 42.316C-23.44 41.996 -22.908 41.836 -22.316 41.836C-21.724 41.836 -21.196 41.996 -20.732 42.316C-20.26 42.628 -19.892 43.06 -19.628 43.612C-19.356 44.156 -19.22 44.78 -19.22 45.484ZM-20.84 45.484C-20.84 45.052 -20.904 44.676 -21.032 44.356C-21.152 44.028 -21.324 43.772 -21.548 43.588C-21.772 43.404 -22.028 43.312 -22.316 43.312C-22.612 43.312 -22.872 43.404 -23.096 43.588C-23.32 43.772 -23.496 44.028 -23.624 44.356C-23.744 44.676 -23.804 45.052 -23.804 45.484C-23.804 45.916 -23.744 46.292 -23.624 46.612C-23.496 46.932 -23.32 47.184 -23.096 47.368C-22.872 47.552 -22.612 47.644 -22.316 47.644C-22.028 47.644 -21.776 47.552 -21.56 47.368C-21.336 47.184 -21.16 46.932 -21.032 46.612C-20.904 46.284 -20.84 45.908 -20.84 45.484ZM-12.6289 47.548V49H-17.5009V47.548H-15.7969V43.912C-15.8689 44.008 -15.9809 44.108 -16.1329 44.212C-16.2849 44.308 -16.4569 44.4 -16.6489 44.488C-16.8409 44.576 -17.0329 44.648 -17.2249 44.704C-17.4169 44.76 -17.5889 44.788 -17.7409 44.788V43.288C-17.5969 43.288 -17.4249 43.244 -17.2249 43.156C-17.0169 43.06 -16.8129 42.948 -16.6129 42.82C-16.4049 42.692 -16.2289 42.568 -16.0849 42.448C-15.9329 42.32 -15.8369 42.22 -15.7969 42.148H-14.1529V47.548H-12.6289ZM-1.95641 45.484C-1.95641 46.188 -2.09241 46.816 -2.36441 47.368C-2.62841 47.912 -2.99641 48.34 -3.46841 48.652C-3.93241 48.964 -4.46041 49.12 -5.05241 49.12C-5.64441 49.12 -6.17641 48.964 -6.64841 48.652C-7.11241 48.34 -7.48041 47.912 -7.75241 47.368C-8.01641 46.816 -8.14841 46.188 -8.14841 45.484C-8.14841 44.78 -8.01641 44.156 -7.75241 43.612C-7.48041 43.06 -7.11241 42.628 -6.64841 42.316C-6.17641 41.996 -5.64441 41.836 -5.05241 41.836C-4.46041 41.836 -3.93241 41.996 -3.46841 42.316C-2.99641 42.628 -2.62841 43.06 -2.36441 43.612C-2.09241 44.156 -1.95641 44.78 -1.95641 45.484ZM-3.57641 45.484C-3.57641 45.052 -3.64041 44.676 -3.76841 44.356C-3.88841 44.028 -4.06041 43.772 -4.28441 43.588C-4.50841 43.404 -4.76441 43.312 -5.05241 43.312C-5.34841 43.312 -5.60841 43.404 -5.83241 43.588C-6.05641 43.772 -6.23241 44.028 -6.36041 44.356C-6.48041 44.676 -6.54041 45.052 -6.54041 45.484C-6.54041 45.916 -6.48041 46.292 -6.36041 46.612C-6.23241 46.932 -6.05641 47.184 -5.83241 47.368C-5.60841 47.552 -5.34841 47.644 -5.05241 47.644C-4.76441 47.644 -4.51241 47.552 -4.29641 47.368C-4.07241 47.184 -3.89641 46.932 -3.76841 46.612C-3.64041 46.284 -3.57641 45.908 -3.57641 45.484ZM4.63469 47.548V49H-0.237312V47.548H1.46669V43.912C1.39469 44.008 1.28269 44.108 1.13069 44.212C0.978688 44.308 0.806688 44.4 0.614688 44.488C0.422688 44.576 0.230688 44.648 0.0386881 44.704C-0.153312 44.76 -0.325312 44.788 -0.477312 44.788V43.288C-0.333312 43.288 -0.161312 43.244 0.0386881 43.156C0.246688 43.06 0.450688 42.948 0.650688 42.82C0.858688 42.692 1.03469 42.568 1.17869 42.448C1.33069 42.32 1.42669 42.22 1.46669 42.148H3.11069V47.548H4.63469ZM15.3072 45.484C15.3072 46.188 15.1712 46.816 14.8992 47.368C14.6352 47.912 14.2672 48.34 13.7952 48.652C13.3312 48.964 12.8032 49.12 12.2112 49.12C11.6192 49.12 11.0872 48.964 10.6152 48.652C10.1512 48.34 9.78319 47.912 9.51119 47.368C9.24719 46.816 9.11519 46.188 9.11519 45.484C9.11519 44.78 9.24719 44.156 9.51119 43.612C9.78319 43.06 10.1512 42.628 10.6152 42.316C11.0872 41.996 11.6192 41.836 12.2112 41.836C12.8032 41.836 13.3312 41.996 13.7952 42.316C14.2672 42.628 14.6352 43.06 14.8992 43.612C15.1712 44.156 15.3072 44.78 15.3072 45.484ZM13.6872 45.484C13.6872 45.052 13.6232 44.676 13.4952 44.356C13.3752 44.028 13.2032 43.772 12.9792 43.588C12.7552 43.404 12.4992 43.312 12.2112 43.312C11.9152 43.312 11.6552 43.404 11.4312 43.588C11.2072 43.772 11.0312 44.028 10.9032 44.356C10.7832 44.676 10.7232 45.052 10.7232 45.484C10.7232 45.916 10.7832 46.292 10.9032 46.612C11.0312 46.932 11.2072 47.184 11.4312 47.368C11.6552 47.552 11.9152 47.644 12.2112 47.644C12.4992 47.644 12.7512 47.552 12.9672 47.368C13.1912 47.184 13.3672 46.932 13.4952 46.612C13.6232 46.284 13.6872 45.908 13.6872 45.484ZM21.8983 47.548V49H17.0263V47.548H18.7303V43.912C18.6583 44.008 18.5463 44.108 18.3943 44.212C18.2423 44.308 18.0703 44.4 17.8783 44.488C17.6863 44.576 17.4943 44.648 17.3023 44.704C17.1103 44.76 16.9383 44.788 16.7863 44.788V43.288C16.9303 43.288 17.1023 43.244 17.3023 43.156C17.5103 43.06 17.7143 42.948 17.9143 42.82C18.1223 42.692 18.2983 42.568 18.4423 42.448C18.5943 42.32 18.6903 42.22 18.7303 42.148H20.3743V47.548H21.8983ZM32.5708 45.484C32.5708 46.188 32.4348 46.816 32.1628 47.368C31.8988 47.912 31.5308 48.34 31.0588 48.652C30.5948 48.964 30.0668 49.12 29.4748 49.12C28.8828 49.12 28.3508 48.964 27.8788 48.652C27.4148 48.34 27.0468 47.912 26.7748 47.368C26.5108 46.816 26.3788 46.188 26.3788 45.484C26.3788 44.78 26.5108 44.156 26.7748 43.612C27.0468 43.06 27.4148 42.628 27.8788 42.316C28.3508 41.996 28.8828 41.836 29.4748 41.836C30.0668 41.836 30.5948 41.996 31.0588 42.316C31.5308 42.628 31.8988 43.06 32.1628 43.612C32.4348 44.156 32.5708 44.78 32.5708 45.484ZM30.9508 45.484C30.9508 45.052 30.8868 44.676 30.7588 44.356C30.6388 44.028 30.4668 43.772 30.2428 43.588C30.0188 43.404 29.7628 43.312 29.4748 43.312C29.1788 43.312 28.9188 43.404 28.6948 43.588C28.4708 43.772 28.2948 44.028 28.1668 44.356C28.0468 44.676 27.9868 45.052 27.9868 45.484C27.9868 45.916 28.0468 46.292 28.1668 46.612C28.2948 46.932 28.4708 47.184 28.6948 47.368C28.9188 47.552 29.1788 47.644 29.4748 47.644C29.7628 47.644 30.0148 47.552 30.2308 47.368C30.4548 47.184 30.6308 46.932 30.7588 46.612C30.8868 46.284 30.9508 45.908 30.9508 45.484ZM39.1619 47.548V49H34.2899V47.548H35.9939V43.912C35.9219 44.008 35.8099 44.108 35.6579 44.212C35.5059 44.308 35.3339 44.4 35.1419 44.488C34.9499 44.576 34.7579 44.648 34.5659 44.704C34.3739 44.76 34.2019 44.788 34.0499 44.788V43.288C34.1939 43.288 34.3659 43.244 34.5659 43.156C34.7739 43.06 34.9779 42.948 35.1779 42.82C35.3859 42.692 35.5619 42.568 35.7059 42.448C35.8579 42.32 35.9539 42.22 35.9939 42.148H37.6379V47.548H39.1619ZM49.8344 45.484C49.8344 46.188 49.6984 46.816 49.4264 47.368C49.1624 47.912 48.7944 48.34 48.3224 48.652C47.8584 48.964 47.3304 49.12 46.7384 49.12C46.1464 49.12 45.6144 48.964 45.1424 48.652C44.6784 48.34 44.3104 47.912 44.0384 47.368C43.7744 46.816 43.6424 46.188 43.6424 45.484C43.6424 44.78 43.7744 44.156 44.0384 43.612C44.3104 43.06 44.6784 42.628 45.1424 42.316C45.6144 41.996 46.1464 41.836 46.7384 41.836C47.3304 41.836 47.8584 41.996 48.3224 42.316C48.7944 42.628 49.1624 43.06 49.4264 43.612C49.6984 44.156 49.8344 44.78 49.8344 45.484ZM48.2144 45.484C48.2144 45.052 48.1504 44.676 48.0224 44.356C47.9024 44.028 47.7304 43.772 47.5064 43.588C47.2824 43.404 47.0264 43.312 46.7384 43.312C46.4424 43.312 46.1824 43.404 45.9584 43.588C45.7344 43.772 45.5584 44.028 45.4304 44.356C45.3104 44.676 45.2504 45.052 45.2504 45.484C45.2504 45.916 45.3104 46.292 45.4304 46.612C45.5584 46.932 45.7344 47.184 45.9584 47.368C46.1824 47.552 46.4424 47.644 46.7384 47.644C47.0264 47.644 47.2784 47.552 47.4944 47.368C47.7184 47.184 47.8944 46.932 48.0224 46.612C48.1504 46.284 48.2144 45.908 48.2144 45.484ZM56.4255 47.548V49H51.5535V47.548H53.2575V43.912C53.1855 44.008 53.0735 44.108 52.9215 44.212C52.7695 44.308 52.5975 44.4 52.4055 44.488C52.2135 44.576 52.0215 44.648 51.8295 44.704C51.6375 44.76 51.4655 44.788 51.3135 44.788V43.288C51.4575 43.288 51.6295 43.244 51.8295 43.156C52.0375 43.06 52.2415 42.948 52.4415 42.82C52.6495 42.692 52.8255 42.568 52.9695 42.448C53.1215 42.32 53.2175 42.22 53.2575 42.148H54.9015V47.548H56.4255ZM67.098 45.484C67.098 46.188 66.962 46.816 66.69 47.368C66.426 47.912 66.058 48.34 65.586 48.652C65.122 48.964 64.594 49.12 64.002 49.12C63.41 49.12 62.878 48.964 62.406 48.652C61.942 48.34 61.574 47.912 61.302 47.368C61.038 46.816 60.906 46.188 60.906 45.484C60.906 44.78 61.038 44.156 61.302 43.612C61.574 43.06 61.942 42.628 62.406 42.316C62.878 41.996 63.41 41.836 64.002 41.836C64.594 41.836 65.122 41.996 65.586 42.316C66.058 42.628 66.426 43.06 66.69 43.612C66.962 44.156 67.098 44.78 67.098 45.484ZM65.478 45.484C65.478 45.052 65.414 44.676 65.286 44.356C65.166 44.028 64.994 43.772 64.77 43.588C64.546 43.404 64.29 43.312 64.002 43.312C63.706 43.312 63.446 43.404 63.222 43.588C62.998 43.772 62.822 44.028 62.694 44.356C62.574 44.676 62.514 45.052 62.514 45.484C62.514 45.916 62.574 46.292 62.694 46.612C62.822 46.932 62.998 47.184 63.222 47.368C63.446 47.552 63.706 47.644 64.002 47.644C64.29 47.644 64.542 47.552 64.758 47.368C64.982 47.184 65.158 46.932 65.286 46.612C65.414 46.284 65.478 45.908 65.478 45.484ZM73.6891 47.548V49H68.8171V47.548H70.5211V43.912C70.4491 44.008 70.3371 44.108 70.1851 44.212C70.0331 44.308 69.8611 44.4 69.6691 44.488C69.4771 44.576 69.2851 44.648 69.0931 44.704C68.9011 44.76 68.7291 44.788 68.5771 44.788V43.288C68.7211 43.288 68.8931 43.244 69.0931 43.156C69.3011 43.06 69.5051 42.948 69.7051 42.82C69.9131 42.692 70.0891 42.568 70.2331 42.448C70.3851 42.32 70.4811 42.22 70.5211 42.148H72.1651V47.548H73.6891ZM84.3616 45.484C84.3616 46.188 84.2256 46.816 83.9536 47.368C83.6896 47.912 83.3216 48.34 82.8496 48.652C82.3856 48.964 81.8576 49.12 81.2656 49.12C80.6736 49.12 80.1416 48.964 79.6696 48.652C79.2056 48.34 78.8376 47.912 78.5656 47.368C78.3016 46.816 78.1696 46.188 78.1696 45.484C78.1696 44.78 78.3016 44.156 78.5656 43.612C78.8376 43.06 79.2056 42.628 79.6696 42.316C80.1416 41.996 80.6736 41.836 81.2656 41.836C81.8576 41.836 82.3856 41.996 82.8496 42.316C83.3216 42.628 83.6896 43.06 83.9536 43.612C84.2256 44.156 84.3616 44.78 84.3616 45.484ZM82.7416 45.484C82.7416 45.052 82.6776 44.676 82.5496 44.356C82.4296 44.028 82.2576 43.772 82.0336 43.588C81.8096 43.404 81.5536 43.312 81.2656 43.312C80.9696 43.312 80.7096 43.404 80.4856 43.588C80.2616 43.772 80.0856 44.028 79.9576 44.356C79.8376 44.676 79.7776 45.052 79.7776 45.484C79.7776 45.916 79.8376 46.292 79.9576 46.612C80.0856 46.932 80.2616 47.184 80.4856 47.368C80.7096 47.552 80.9696 47.644 81.2656 47.644C81.5536 47.644 81.8056 47.552 82.0216 47.368C82.2456 47.184 82.4216 46.932 82.5496 46.612C82.6776 46.284 82.7416 45.908 82.7416 45.484ZM90.9527 47.548V49H86.0807V47.548H87.7847V43.912C87.7127 44.008 87.6007 44.108 87.4487 44.212C87.2967 44.308 87.1247 44.4 86.9327 44.488C86.7407 44.576 86.5487 44.648 86.3567 44.704C86.1647 44.76 85.9927 44.788 85.8407 44.788V43.288C85.9847 43.288 86.1567 43.244 86.3567 43.156C86.5647 43.06 86.7687 42.948 86.9687 42.82C87.1767 42.692 87.3527 42.568 87.4967 42.448C87.6487 42.32 87.7447 42.22 87.7847 42.148H89.4287V47.548H90.9527ZM101.625 45.484C101.625 46.188 101.489 46.816 101.217 47.368C100.953 47.912 100.585 48.34 100.113 48.652C99.6492 48.964 99.1212 49.12 98.5292 49.12C97.9372 49.12 97.4052 48.964 96.9332 48.652C96.4692 48.34 96.1012 47.912 95.8292 47.368C95.5652 46.816 95.4332 46.188 95.4332 45.484C95.4332 44.78 95.5652 44.156 95.8292 43.612C96.1012 43.06 96.4692 42.628 96.9332 42.316C97.4052 41.996 97.9372 41.836 98.5292 41.836C99.1212 41.836 99.6492 41.996 100.113 42.316C100.585 42.628 100.953 43.06 101.217 43.612C101.489 44.156 101.625 44.78 101.625 45.484ZM100.005 45.484C100.005 45.052 99.9412 44.676 99.8132 44.356C99.6932 44.028 99.5212 43.772 99.2972 43.588C99.0732 43.404 98.8172 43.312 98.5292 43.312C98.2332 43.312 97.9732 43.404 97.7492 43.588C97.5252 43.772 97.3492 44.028 97.2212 44.356C97.1012 44.676 97.0412 45.052 97.0412 45.484C97.0412 45.916 97.1012 46.292 97.2212 46.612C97.3492 46.932 97.5252 47.184 97.7492 47.368C97.9732 47.552 98.2332 47.644 98.5292 47.644C98.8172 47.644 99.0692 47.552 99.2852 47.368C99.5092 47.184 99.6852 46.932 99.8132 46.612C99.9412 46.284 100.005 45.908 100.005 45.484ZM108.216 47.548V49H103.344V47.548H105.048V43.912C104.976 44.008 104.864 44.108 104.712 44.212C104.56 44.308 104.388 44.4 104.196 44.488C104.004 44.576 103.812 44.648 103.62 44.704C103.428 44.76 103.256 44.788 103.104 44.788V43.288C103.248 43.288 103.42 43.244 103.62 43.156C103.828 43.06 104.032 42.948 104.232 42.82C104.44 42.692 104.616 42.568 104.76 42.448C104.912 42.32 105.008 42.22 105.048 42.148H106.692V47.548H108.216ZM-19.22 59.484C-19.22 60.188 -19.356 60.816 -19.628 61.368C-19.892 61.912 -20.26 62.34 -20.732 62.652C-21.196 62.964 -21.724 63.12 -22.316 63.12C-22.908 63.12 -23.44 62.964 -23.912 62.652C-24.376 62.34 -24.744 61.912 -25.016 61.368C-25.28 60.816 -25.412 60.188 -25.412 59.484C-25.412 58.78 -25.28 58.156 -25.016 57.612C-24.744 57.06 -24.376 56.628 -23.912 56.316C-23.44 55.996 -22.908 55.836 -22.316 55.836C-21.724 55.836 -21.196 55.996 -20.732 56.316C-20.26 56.628 -19.892 57.06 -19.628 57.612C-19.356 58.156 -19.22 58.78 -19.22 59.484ZM-20.84 59.484C-20.84 59.052 -20.904 58.676 -21.032 58.356C-21.152 58.028 -21.324 57.772 -21.548 57.588C-21.772 57.404 -22.028 57.312 -22.316 57.312C-22.612 57.312 -22.872 57.404 -23.096 57.588C-23.32 57.772 -23.496 58.028 -23.624 58.356C-23.744 58.676 -23.804 59.052 -23.804 59.484C-23.804 59.916 -23.744 60.292 -23.624 60.612C-23.496 60.932 -23.32 61.184 -23.096 61.368C-22.872 61.552 -22.612 61.644 -22.316 61.644C-22.028 61.644 -21.776 61.552 -21.56 61.368C-21.336 61.184 -21.16 60.932 -21.032 60.612C-20.904 60.284 -20.84 59.908 -20.84 59.484ZM-12.6289 61.548V63H-17.5009V61.548H-15.7969V57.912C-15.8689 58.008 -15.9809 58.108 -16.1329 58.212C-16.2849 58.308 -16.4569 58.4 -16.6489 58.488C-16.8409 58.576 -17.0329 58.648 -17.2249 58.704C-17.4169 58.76 -17.5889 58.788 -17.7409 58.788V57.288C-17.5969 57.288 -17.4249 57.244 -17.2249 57.156C-17.0169 57.06 -16.8129 56.948 -16.6129 56.82C-16.4049 56.692 -16.2289 56.568 -16.0849 56.448C-15.9329 56.32 -15.8369 56.22 -15.7969 56.148H-14.1529V61.548H-12.6289ZM-1.95641 59.484C-1.95641 60.188 -2.09241 60.816 -2.36441 61.368C-2.62841 61.912 -2.99641 62.34 -3.46841 62.652C-3.93241 62.964 -4.46041 63.12 -5.05241 63.12C-5.64441 63.12 -6.17641 62.964 -6.64841 62.652C-7.11241 62.34 -7.48041 61.912 -7.75241 61.368C-8.01641 60.816 -8.14841 60.188 -8.14841 59.484C-8.14841 58.78 -8.01641 58.156 -7.75241 57.612C-7.48041 57.06 -7.11241 56.628 -6.64841 56.316C-6.17641 55.996 -5.64441 55.836 -5.05241 55.836C-4.46041 55.836 -3.93241 55.996 -3.46841 56.316C-2.99641 56.628 -2.62841 57.06 -2.36441 57.612C-2.09241 58.156 -1.95641 58.78 -1.95641 59.484ZM-3.57641 59.484C-3.57641 59.052 -3.64041 58.676 -3.76841 58.356C-3.88841 58.028 -4.06041 57.772 -4.28441 57.588C-4.50841 57.404 -4.76441 57.312 -5.05241 57.312C-5.34841 57.312 -5.60841 57.404 -5.83241 57.588C-6.05641 57.772 -6.23241 58.028 -6.36041 58.356C-6.48041 58.676 -6.54041 59.052 -6.54041 59.484C-6.54041 59.916 -6.48041 60.292 -6.36041 60.612C-6.23241 60.932 -6.05641 61.184 -5.83241 61.368C-5.60841 61.552 -5.34841 61.644 -5.05241 61.644C-4.76441 61.644 -4.51241 61.552 -4.29641 61.368C-4.07241 61.184 -3.89641 60.932 -3.76841 60.612C-3.64041 60.284 -3.57641 59.908 -3.57641 59.484ZM4.63469 61.548V63H-0.237312V61.548H1.46669V57.912C1.39469 58.008 1.28269 58.108 1.13069 58.212C0.978688 58.308 0.806688 58.4 0.614688 58.488C0.422688 58.576 0.230688 58.648 0.0386881 58.704C-0.153312 58.76 -0.325312 58.788 -0.477312 58.788V57.288C-0.333312 57.288 -0.161312 57.244 0.0386881 57.156C0.246688 57.06 0.450688 56.948 0.650688 56.82C0.858688 56.692 1.03469 56.568 1.17869 56.448C1.33069 56.32 1.42669 56.22 1.46669 56.148H3.11069V61.548H4.63469ZM15.3072 59.484C15.3072 60.188 15.1712 60.816 14.8992 61.368C14.6352 61.912 14.2672 62.34 13.7952 62.652C13.3312 62.964 12.8032 63.12 12.2112 63.12C11.6192 63.12 11.0872 62.964 10.6152 62.652C10.1512 62.34 9.78319 61.912 9.51119 61.368C9.24719 60.816 9.11519 60.188 9.11519 59.484C9.11519 58.78 9.24719 58.156 9.51119 57.612C9.78319 57.06 10.1512 56.628 10.6152 56.316C11.0872 55.996 11.6192 55.836 12.2112 55.836C12.8032 55.836 13.3312 55.996 13.7952 56.316C14.2672 56.628 14.6352 57.06 14.8992 57.612C15.1712 58.156 15.3072 58.78 15.3072 59.484ZM13.6872 59.484C13.6872 59.052 13.6232 58.676 13.4952 58.356C13.3752 58.028 13.2032 57.772 12.9792 57.588C12.7552 57.404 12.4992 57.312 12.2112 57.312C11.9152 57.312 11.6552 57.404 11.4312 57.588C11.2072 57.772 11.0312 58.028 10.9032 58.356C10.7832 58.676 10.7232 59.052 10.7232 59.484C10.7232 59.916 10.7832 60.292 10.9032 60.612C11.0312 60.932 11.2072 61.184 11.4312 61.368C11.6552 61.552 11.9152 61.644 12.2112 61.644C12.4992 61.644 12.7512 61.552 12.9672 61.368C13.1912 61.184 13.3672 60.932 13.4952 60.612C13.6232 60.284 13.6872 59.908 13.6872 59.484ZM21.8983 61.548V63H17.0263V61.548H18.7303V57.912C18.6583 58.008 18.5463 58.108 18.3943 58.212C18.2423 58.308 18.0703 58.4 17.8783 58.488C17.6863 58.576 17.4943 58.648 17.3023 58.704C17.1103 58.76 16.9383 58.788 16.7863 58.788V57.288C16.9303 57.288 17.1023 57.244 17.3023 57.156C17.5103 57.06 17.7143 56.948 17.9143 56.82C18.1223 56.692 18.2983 56.568 18.4423 56.448C18.5943 56.32 18.6903 56.22 18.7303 56.148H20.3743V61.548H21.8983ZM32.5708 59.484C32.5708 60.188 32.4348 60.816 32.1628 61.368C31.8988 61.912 31.5308 62.34 31.0588 62.652C30.5948 62.964 30.0668 63.12 29.4748 63.12C28.8828 63.12 28.3508 62.964 27.8788 62.652C27.4148 62.34 27.0468 61.912 26.7748 61.368C26.5108 60.816 26.3788 60.188 26.3788 59.484C26.3788 58.78 26.5108 58.156 26.7748 57.612C27.0468 57.06 27.4148 56.628 27.8788 56.316C28.3508 55.996 28.8828 55.836 29.4748 55.836C30.0668 55.836 30.5948 55.996 31.0588 56.316C31.5308 56.628 31.8988 57.06 32.1628 57.612C32.4348 58.156 32.5708 58.78 32.5708 59.484ZM30.9508 59.484C30.9508 59.052 30.8868 58.676 30.7588 58.356C30.6388 58.028 30.4668 57.772 30.2428 57.588C30.0188 57.404 29.7628 57.312 29.4748 57.312C29.1788 57.312 28.9188 57.404 28.6948 57.588C28.4708 57.772 28.2948 58.028 28.1668 58.356C28.0468 58.676 27.9868 59.052 27.9868 59.484C27.9868 59.916 28.0468 60.292 28.1668 60.612C28.2948 60.932 28.4708 61.184 28.6948 61.368C28.9188 61.552 29.1788 61.644 29.4748 61.644C29.7628 61.644 30.0148 61.552 30.2308 61.368C30.4548 61.184 30.6308 60.932 30.7588 60.612C30.8868 60.284 30.9508 59.908 30.9508 59.484ZM39.1619 61.548V63H34.2899V61.548H35.9939V57.912C35.9219 58.008 35.8099 58.108 35.6579 58.212C35.5059 58.308 35.3339 58.4 35.1419 58.488C34.9499 58.576 34.7579 58.648 34.5659 58.704C34.3739 58.76 34.2019 58.788 34.0499 58.788V57.288C34.1939 57.288 34.3659 57.244 34.5659 57.156C34.7739 57.06 34.9779 56.948 35.1779 56.82C35.3859 56.692 35.5619 56.568 35.7059 56.448C35.8579 56.32 35.9539 56.22 35.9939 56.148H37.6379V61.548H39.1619ZM49.8344 59.484C49.8344 60.188 49.6984 60.816 49.4264 61.368C49.1624 61.912 48.7944 62.34 48.3224 62.652C47.8584 62.964 47.3304 63.12 46.7384 63.12C46.1464 63.12 45.6144 62.964 45.1424 62.652C44.6784 62.34 44.3104 61.912 44.0384 61.368C43.7744 60.816 43.6424 60.188 43.6424 59.484C43.6424 58.78 43.7744 58.156 44.0384 57.612C44.3104 57.06 44.6784 56.628 45.1424 56.316C45.6144 55.996 46.1464 55.836 46.7384 55.836C47.3304 55.836 47.8584 55.996 48.3224 56.316C48.7944 56.628 49.1624 57.06 49.4264 57.612C49.6984 58.156 49.8344 58.78 49.8344 59.484ZM48.2144 59.484C48.2144 59.052 48.1504 58.676 48.0224 58.356C47.9024 58.028 47.7304 57.772 47.5064 57.588C47.2824 57.404 47.0264 57.312 46.7384 57.312C46.4424 57.312 46.1824 57.404 45.9584 57.588C45.7344 57.772 45.5584 58.028 45.4304 58.356C45.3104 58.676 45.2504 59.052 45.2504 59.484C45.2504 59.916 45.3104 60.292 45.4304 60.612C45.5584 60.932 45.7344 61.184 45.9584 61.368C46.1824 61.552 46.4424 61.644 46.7384 61.644C47.0264 61.644 47.2784 61.552 47.4944 61.368C47.7184 61.184 47.8944 60.932 48.0224 60.612C48.1504 60.284 48.2144 59.908 48.2144 59.484ZM56.4255 61.548V63H51.5535V61.548H53.2575V57.912C53.1855 58.008 53.0735 58.108 52.9215 58.212C52.7695 58.308 52.5975 58.4 52.4055 58.488C52.2135 58.576 52.0215 58.648 51.8295 58.704C51.6375 58.76 51.4655 58.788 51.3135 58.788V57.288C51.4575 57.288 51.6295 57.244 51.8295 57.156C52.0375 57.06 52.2415 56.948 52.4415 56.82C52.6495 56.692 52.8255 56.568 52.9695 56.448C53.1215 56.32 53.2175 56.22 53.2575 56.148H54.9015V61.548H56.4255ZM67.098 59.484C67.098 60.188 66.962 60.816 66.69 61.368C66.426 61.912 66.058 62.34 65.586 62.652C65.122 62.964 64.594 63.12 64.002 63.12C63.41 63.12 62.878 62.964 62.406 62.652C61.942 62.34 61.574 61.912 61.302 61.368C61.038 60.816 60.906 60.188 60.906 59.484C60.906 58.78 61.038 58.156 61.302 57.612C61.574 57.06 61.942 56.628 62.406 56.316C62.878 55.996 63.41 55.836 64.002 55.836C64.594 55.836 65.122 55.996 65.586 56.316C66.058 56.628 66.426 57.06 66.69 57.612C66.962 58.156 67.098 58.78 67.098 59.484ZM65.478 59.484C65.478 59.052 65.414 58.676 65.286 58.356C65.166 58.028 64.994 57.772 64.77 57.588C64.546 57.404 64.29 57.312 64.002 57.312C63.706 57.312 63.446 57.404 63.222 57.588C62.998 57.772 62.822 58.028 62.694 58.356C62.574 58.676 62.514 59.052 62.514 59.484C62.514 59.916 62.574 60.292 62.694 60.612C62.822 60.932 62.998 61.184 63.222 61.368C63.446 61.552 63.706 61.644 64.002 61.644C64.29 61.644 64.542 61.552 64.758 61.368C64.982 61.184 65.158 60.932 65.286 60.612C65.414 60.284 65.478 59.908 65.478 59.484ZM73.6891 61.548V63H68.8171V61.548H70.5211V57.912C70.4491 58.008 70.3371 58.108 70.1851 58.212C70.0331 58.308 69.8611 58.4 69.6691 58.488C69.4771 58.576 69.2851 58.648 69.0931 58.704C68.9011 58.76 68.7291 58.788 68.5771 58.788V57.288C68.7211 57.288 68.8931 57.244 69.0931 57.156C69.3011 57.06 69.5051 56.948 69.7051 56.82C69.9131 56.692 70.0891 56.568 70.2331 56.448C70.3851 56.32 70.4811 56.22 70.5211 56.148H72.1651V61.548H73.6891ZM84.3616 59.484C84.3616 60.188 84.2256 60.816 83.9536 61.368C83.6896 61.912 83.3216 62.34 82.8496 62.652C82.3856 62.964 81.8576 63.12 81.2656 63.12C80.6736 63.12 80.1416 62.964 79.6696 62.652C79.2056 62.34 78.8376 61.912 78.5656 61.368C78.3016 60.816 78.1696 60.188 78.1696 59.484C78.1696 58.78 78.3016 58.156 78.5656 57.612C78.8376 57.06 79.2056 56.628 79.6696 56.316C80.1416 55.996 80.6736 55.836 81.2656 55.836C81.8576 55.836 82.3856 55.996 82.8496 56.316C83.3216 56.628 83.6896 57.06 83.9536 57.612C84.2256 58.156 84.3616 58.78 84.3616 59.484ZM82.7416 59.484C82.7416 59.052 82.6776 58.676 82.5496 58.356C82.4296 58.028 82.2576 57.772 82.0336 57.588C81.8096 57.404 81.5536 57.312 81.2656 57.312C80.9696 57.312 80.7096 57.404 80.4856 57.588C80.2616 57.772 80.0856 58.028 79.9576 58.356C79.8376 58.676 79.7776 59.052 79.7776 59.484C79.7776 59.916 79.8376 60.292 79.9576 60.612C80.0856 60.932 80.2616 61.184 80.4856 61.368C80.7096 61.552 80.9696 61.644 81.2656 61.644C81.5536 61.644 81.8056 61.552 82.0216 61.368C82.2456 61.184 82.4216 60.932 82.5496 60.612C82.6776 60.284 82.7416 59.908 82.7416 59.484ZM90.9527 61.548V63H86.0807V61.548H87.7847V57.912C87.7127 58.008 87.6007 58.108 87.4487 58.212C87.2967 58.308 87.1247 58.4 86.9327 58.488C86.7407 58.576 86.5487 58.648 86.3567 58.704C86.1647 58.76 85.9927 58.788 85.8407 58.788V57.288C85.9847 57.288 86.1567 57.244 86.3567 57.156C86.5647 57.06 86.7687 56.948 86.9687 56.82C87.1767 56.692 87.3527 56.568 87.4967 56.448C87.6487 56.32 87.7447 56.22 87.7847 56.148H89.4287V61.548H90.9527ZM101.625 59.484C101.625 60.188 101.489 60.816 101.217 61.368C100.953 61.912 100.585 62.34 100.113 62.652C99.6492 62.964 99.1212 63.12 98.5292 63.12C97.9372 63.12 97.4052 62.964 96.9332 62.652C96.4692 62.34 96.1012 61.912 95.8292 61.368C95.5652 60.816 95.4332 60.188 95.4332 59.484C95.4332 58.78 95.5652 58.156 95.8292 57.612C96.1012 57.06 96.4692 56.628 96.9332 56.316C97.4052 55.996 97.9372 55.836 98.5292 55.836C99.1212 55.836 99.6492 55.996 100.113 56.316C100.585 56.628 100.953 57.06 101.217 57.612C101.489 58.156 101.625 58.78 101.625 59.484ZM100.005 59.484C100.005 59.052 99.9412 58.676 99.8132 58.356C99.6932 58.028 99.5212 57.772 99.2972 57.588C99.0732 57.404 98.8172 57.312 98.5292 57.312C98.2332 57.312 97.9732 57.404 97.7492 57.588C97.5252 57.772 97.3492 58.028 97.2212 58.356C97.1012 58.676 97.0412 59.052 97.0412 59.484C97.0412 59.916 97.1012 60.292 97.2212 60.612C97.3492 60.932 97.5252 61.184 97.7492 61.368C97.9732 61.552 98.2332 61.644 98.5292 61.644C98.8172 61.644 99.0692 61.552 99.2852 61.368C99.5092 61.184 99.6852 60.932 99.8132 60.612C99.9412 60.284 100.005 59.908 100.005 59.484ZM108.216 61.548V63H103.344V61.548H105.048V57.912C104.976 58.008 104.864 58.108 104.712 58.212C104.56 58.308 104.388 58.4 104.196 58.488C104.004 58.576 103.812 58.648 103.62 58.704C103.428 58.76 103.256 58.788 103.104 58.788V57.288C103.248 57.288 103.42 57.244 103.62 57.156C103.828 57.06 104.032 56.948 104.232 56.82C104.44 56.692 104.616 56.568 104.76 56.448C104.912 56.32 105.008 56.22 105.048 56.148H106.692V61.548H108.216ZM-19.22 73.484C-19.22 74.188 -19.356 74.816 -19.628 75.368C-19.892 75.912 -20.26 76.34 -20.732 76.652C-21.196 76.964 -21.724 77.12 -22.316 77.12C-22.908 77.12 -23.44 76.964 -23.912 76.652C-24.376 76.34 -24.744 75.912 -25.016 75.368C-25.28 74.816 -25.412 74.188 -25.412 73.484C-25.412 72.78 -25.28 72.156 -25.016 71.612C-24.744 71.06 -24.376 70.628 -23.912 70.316C-23.44 69.996 -22.908 69.836 -22.316 69.836C-21.724 69.836 -21.196 69.996 -20.732 70.316C-20.26 70.628 -19.892 71.06 -19.628 71.612C-19.356 72.156 -19.22 72.78 -19.22 73.484ZM-20.84 73.484C-20.84 73.052 -20.904 72.676 -21.032 72.356C-21.152 72.028 -21.324 71.772 -21.548 71.588C-21.772 71.404 -22.028 71.312 -22.316 71.312C-22.612 71.312 -22.872 71.404 -23.096 71.588C-23.32 71.772 -23.496 72.028 -23.624 72.356C-23.744 72.676 -23.804 73.052 -23.804 73.484C-23.804 73.916 -23.744 74.292 -23.624 74.612C-23.496 74.932 -23.32 75.184 -23.096 75.368C-22.872 75.552 -22.612 75.644 -22.316 75.644C-22.028 75.644 -21.776 75.552 -21.56 75.368C-21.336 75.184 -21.16 74.932 -21.032 74.612C-20.904 74.284 -20.84 73.908 -20.84 73.484ZM-12.6289 75.548V77H-17.5009V75.548H-15.7969V71.912C-15.8689 72.008 -15.9809 72.108 -16.1329 72.212C-16.2849 72.308 -16.4569 72.4 -16.6489 72.488C-16.8409 72.576 -17.0329 72.648 -17.2249 72.704C-17.4169 72.76 -17.5889 72.788 -17.7409 72.788V71.288C-17.5969 71.288 -17.4249 71.244 -17.2249 71.156C-17.0169 71.06 -16.8129 70.948 -16.6129 70.82C-16.4049 70.692 -16.2289 70.568 -16.0849 70.448C-15.9329 70.32 -15.8369 70.22 -15.7969 70.148H-14.1529V75.548H-12.6289ZM-1.95641 73.484C-1.95641 74.188 -2.09241 74.816 -2.36441 75.368C-2.62841 75.912 -2.99641 76.34 -3.46841 76.652C-3.93241 76.964 -4.46041 77.12 -5.05241 77.12C-5.64441 77.12 -6.17641 76.964 -6.64841 76.652C-7.11241 76.34 -7.48041 75.912 -7.75241 75.368C-8.01641 74.816 -8.14841 74.188 -8.14841 73.484C-8.14841 72.78 -8.01641 72.156 -7.75241 71.612C-7.48041 71.06 -7.11241 70.628 -6.64841 70.316C-6.17641 69.996 -5.64441 69.836 -5.05241 69.836C-4.46041 69.836 -3.93241 69.996 -3.46841 70.316C-2.99641 70.628 -2.62841 71.06 -2.36441 71.612C-2.09241 72.156 -1.95641 72.78 -1.95641 73.484ZM-3.57641 73.484C-3.57641 73.052 -3.64041 72.676 -3.76841 72.356C-3.88841 72.028 -4.06041 71.772 -4.28441 71.588C-4.50841 71.404 -4.76441 71.312 -5.05241 71.312C-5.34841 71.312 -5.60841 71.404 -5.83241 71.588C-6.05641 71.772 -6.23241 72.028 -6.36041 72.356C-6.48041 72.676 -6.54041 73.052 -6.54041 73.484C-6.54041 73.916 -6.48041 74.292 -6.36041 74.612C-6.23241 74.932 -6.05641 75.184 -5.83241 75.368C-5.60841 75.552 -5.34841 75.644 -5.05241 75.644C-4.76441 75.644 -4.51241 75.552 -4.29641 75.368C-4.07241 75.184 -3.89641 74.932 -3.76841 74.612C-3.64041 74.284 -3.57641 73.908 -3.57641 73.484ZM4.63469 75.548V77H-0.237312V75.548H1.46669V71.912C1.39469 72.008 1.28269 72.108 1.13069 72.212C0.978688 72.308 0.806688 72.4 0.614688 72.488C0.422688 72.576 0.230688 72.648 0.0386881 72.704C-0.153312 72.76 -0.325312 72.788 -0.477312 72.788V71.288C-0.333312 71.288 -0.161312 71.244 0.0386881 71.156C0.246688 71.06 0.450688 70.948 0.650688 70.82C0.858688 70.692 1.03469 70.568 1.17869 70.448C1.33069 70.32 1.42669 70.22 1.46669 70.148H3.11069V75.548H4.63469Z" fill="white" fill-opacity="0.21"/>
</g>
<defs>
<linearGradient id="paint0_linear_99_303" x1="-114.5" y1="17" x2="150.5" y2="17" gradientUnits="userSpaceOnUse">
<stop stop-color="#E0641E"/>
<stop offset="0.627173" stop-color="#CF8A6C"/>
<stop offset="1" stop-color="#8F3997"/>
</linearGradient>
<clipPath id="clip0_99_303">
<rect width="100" height="35" fill="white"/>
</clipPath>
</defs>
</svg>
