<svg width="52" height="52" viewBox="0 0 52 52" fill="none" xmlns="http://www.w3.org/2000/svg">
<g clip-path="url(#clip0_34_257)">
<path d="M8.87342 42.15L8.87328 42.1529C8.84352 42.7549 8.76126 43.2722 8.68971 43.6308C8.64917 43.8217 8.62285 43.9438 8.60222 44.0247C8.59104 44.0629 8.58305 44.095 8.57798 44.1156L8.57431 44.1306L8.57067 44.1426L8.57066 44.1426C8.35318 44.8558 8.59142 45.6149 9.1606 46.0814C9.73008 46.5481 10.5237 46.6317 11.1789 46.2827C12.8746 45.3795 14.2665 43.967 15.3011 42.6676L15.3026 42.6658C16.1492 41.5964 16.8166 40.5211 17.2545 39.689C19.2619 39.3521 21.2907 38.6741 23.2415 37.635L23.9868 37.238L23.9756 37.2171C31.3869 32.8632 34.9328 24.4081 31.4431 17.8564C27.8395 11.0912 18.3659 9.41898 10.4562 13.6321C2.54649 17.8453 -1.35186 26.6401 2.25169 33.4053C3.60044 35.9375 5.79661 37.7626 8.41612 38.8287C8.83935 39.9572 8.92679 41.1396 8.87342 42.15ZM8.57271 44.1372C8.57243 44.1383 8.57245 44.1382 8.57273 44.1371L8.57271 44.1372ZM25.3017 23.0167C25.1222 22.6797 24.7852 22.4546 24.4005 22.4199L22.2498 22.2072C21.7826 22.161 21.3644 21.8836 21.14 21.4622C20.7742 20.7756 21.0355 19.9188 21.7221 19.553L22.4674 19.156L22.4646 19.1506L22.758 18.9943C22.8225 18.96 22.9081 18.9861 22.9424 19.0505C22.9768 19.115 22.9507 19.2006 22.8862 19.235L21.8474 19.7883C21.2796 20.0907 21.089 20.7865 21.3777 21.3286C21.5573 21.6656 21.8943 21.8907 22.279 21.9255L24.4297 22.1382C24.8969 22.1844 25.3151 22.4618 25.5395 22.8831C25.9053 23.5698 25.644 24.4266 24.9574 24.7923L24.9546 24.7938L23.4886 25.5816C23.4884 25.5817 23.4882 25.5818 23.4879 25.582C23.4235 25.6157 23.3384 25.5896 23.3042 25.5254C23.2699 25.4609 23.296 25.3753 23.3604 25.3409L24.832 24.5571C25.3998 24.2546 25.5905 23.5589 25.3017 23.0167ZM12.317 29.9331C12.1375 29.5961 11.8005 29.371 11.4158 29.3363L9.26823 29.1239C8.79393 29.0729 8.37593 28.7929 8.15236 28.3732C7.78661 27.6865 8.04786 26.8298 8.73452 26.464L9.7733 25.9107C9.83777 25.8763 9.92337 25.9024 9.95772 25.9669C9.99206 26.0314 9.96596 26.117 9.90148 26.1513L8.8627 26.7047C8.29492 27.0071 8.10424 27.7028 8.39302 28.245C8.57254 28.582 8.90957 28.8071 9.29426 28.8418L11.445 29.0545L11.445 29.0545L11.4488 29.0549C11.9147 29.0989 12.3285 29.3747 12.5548 29.7995C12.9205 30.4862 12.6593 31.3429 11.9726 31.7087L11.9699 31.7102L10.5039 32.498C10.5037 32.4981 10.5034 32.4982 10.5032 32.4983C10.4388 32.5321 10.3537 32.506 10.3195 32.4417C10.2851 32.3773 10.3112 32.2917 10.3757 32.2573L11.8473 31.4735C12.4151 31.171 12.6058 30.4753 12.317 29.9331ZM16.1812 25.8169L17.2004 26.2936L17.3734 25.1818L17.9263 21.63L17.9267 21.6273C17.9353 21.5708 17.9796 21.5241 18.0399 21.5139C18.0955 21.5045 18.1503 21.5282 18.1814 21.5866L20.9479 26.7804C20.9823 26.8449 20.9562 26.9305 20.8917 26.9649C20.8272 26.9992 20.7416 26.9731 20.7073 26.9086L19.324 24.3117L18.133 22.0757L17.7442 24.5791L17.4432 26.5174C17.4369 26.5577 17.4085 26.5977 17.3726 26.6168C17.3366 26.636 17.2875 26.6372 17.2507 26.62L15.4741 25.7883L13.1798 24.7141L14.3708 26.95L15.754 29.547C15.7884 29.6115 15.7623 29.6971 15.6978 29.7314C15.6333 29.7658 15.5477 29.7397 15.5134 29.6752L12.7468 24.4813C12.7186 24.4284 12.7274 24.3639 12.7682 24.3205C12.7996 24.2871 12.8629 24.2663 12.9297 24.2959L16.1812 25.8169Z" fill="#181632" stroke="white" stroke-width="1.68892"/>
<path d="M28.9195 22.7843C31.0785 18.3441 36.4329 16.4931 40.8731 18.6521C45.3134 20.8111 47.1643 26.1656 45.0053 30.6058L44.292 32.0729C44.1013 32.4649 43.6323 32.627 43.2403 32.4364C42.8482 32.2458 42.6861 31.7768 42.8767 31.3847L43.5901 29.9177L45.3734 26.25C45.9719 25.0191 45.4604 23.5394 44.2295 22.9409C43.8788 22.7704 43.5104 22.6921 43.1498 22.692C42.4449 21.5968 41.4394 20.6773 40.185 20.0674C36.5243 18.2874 32.1147 19.8117 30.3347 23.4724C28.5547 27.1331 30.079 31.5427 33.7397 33.3227C35.2093 34.0373 36.8013 34.2179 38.292 33.9445C38.8118 35.1856 39.7691 36.2544 41.075 36.8894C43.9243 38.2748 47.3595 37.0873 48.745 34.2381L49.4583 32.771C52.8143 25.869 49.9404 17.5551 43.0384 14.1991C36.1364 10.8431 27.8225 13.717 24.4665 20.619C21.1104 27.521 23.9844 35.8349 30.8864 39.191C32.1173 39.7895 33.597 39.278 34.1955 38.0471C34.794 36.8162 34.2825 35.3365 33.0516 34.738C28.6114 32.579 26.7605 27.2245 28.9195 22.7843ZM39.2478 25.905C39.4573 26.5111 39.4175 27.1757 39.1371 27.7525C38.8566 28.3292 38.3585 28.7709 37.7524 28.9805C37.1463 29.19 36.4817 29.1502 35.905 28.8697C35.3282 28.5893 34.8865 28.0912 34.6769 27.4851C34.4674 26.8789 34.5072 26.2144 34.7877 25.6376C35.0681 25.0609 35.5662 24.6191 36.1723 24.4096C36.7785 24.2001 37.443 24.2399 38.0198 24.5204C38.5965 24.8008 39.0383 25.2989 39.2478 25.905Z" fill="#181632" stroke="white" stroke-width="1.68892"/>
</g>
<defs>
<clipPath id="clip0_34_257">
<rect width="52" height="52" fill="white"/>
</clipPath>
</defs>
</svg>
