<svg width="133" height="36" viewBox="0 0 133 36" fill="none" xmlns="http://www.w3.org/2000/svg">
<path d="M2.05682 21V12.2727H5.00568C5.69034 12.2727 6.25 12.3963 6.68466 12.6435C7.12216 12.8878 7.44602 13.2188 7.65625 13.6364C7.86648 14.054 7.97159 14.5199 7.97159 15.0341C7.97159 15.5483 7.86648 16.0156 7.65625 16.4361C7.44886 16.8565 7.12784 17.1918 6.69318 17.4418C6.25852 17.6889 5.7017 17.8125 5.02273 17.8125H2.90909V16.875H4.98864C5.45739 16.875 5.83381 16.794 6.1179 16.6321C6.40199 16.4702 6.60795 16.2514 6.7358 15.9759C6.86648 15.6974 6.93182 15.3835 6.93182 15.0341C6.93182 14.6847 6.86648 14.3722 6.7358 14.0966C6.60795 13.821 6.40057 13.6051 6.11364 13.4489C5.8267 13.2898 5.44602 13.2102 4.97159 13.2102H3.11364V21H2.05682ZM12.1264 21.1364C11.5355 21.1364 11.017 20.9957 10.571 20.7145C10.1278 20.4332 9.78125 20.0398 9.53125 19.5341C9.28409 19.0284 9.16051 18.4375 9.16051 17.7614C9.16051 17.0795 9.28409 16.4844 9.53125 15.9759C9.78125 15.4673 10.1278 15.0724 10.571 14.7912C11.017 14.5099 11.5355 14.3693 12.1264 14.3693C12.7173 14.3693 13.2344 14.5099 13.6776 14.7912C14.1236 15.0724 14.4702 15.4673 14.7173 15.9759C14.9673 16.4844 15.0923 17.0795 15.0923 17.7614C15.0923 18.4375 14.9673 19.0284 14.7173 19.5341C14.4702 20.0398 14.1236 20.4332 13.6776 20.7145C13.2344 20.9957 12.7173 21.1364 12.1264 21.1364ZM12.1264 20.233C12.5753 20.233 12.9446 20.1179 13.2344 19.8878C13.5241 19.6577 13.7386 19.3551 13.8778 18.9801C14.017 18.6051 14.0866 18.1989 14.0866 17.7614C14.0866 17.3239 14.017 16.9162 13.8778 16.5384C13.7386 16.1605 13.5241 15.8551 13.2344 15.6222C12.9446 15.3892 12.5753 15.2727 12.1264 15.2727C11.6776 15.2727 11.3082 15.3892 11.0185 15.6222C10.7287 15.8551 10.5142 16.1605 10.375 16.5384C10.2358 16.9162 10.1662 17.3239 10.1662 17.7614C10.1662 18.1989 10.2358 18.6051 10.375 18.9801C10.5142 19.3551 10.7287 19.6577 11.0185 19.8878C11.3082 20.1179 11.6776 20.233 12.1264 20.233ZM17.8878 21L15.8935 14.4545H16.9503L18.3651 19.4659H18.4332L19.831 14.4545H20.9048L22.2855 19.4489H22.3537L23.7685 14.4545H24.8253L22.831 21H21.8423L20.4105 15.9716H20.3082L18.8764 21H17.8878ZM28.6765 21.1364C28.0458 21.1364 27.5018 20.9972 27.0444 20.7188C26.5898 20.4375 26.239 20.0455 25.9918 19.5426C25.7475 19.0369 25.6254 18.4489 25.6254 17.7784C25.6254 17.108 25.7475 16.517 25.9918 16.0057C26.239 15.4915 26.5827 15.0909 27.0231 14.804C27.4663 14.5142 27.9833 14.3693 28.5742 14.3693C28.9151 14.3693 29.2518 14.4261 29.5842 14.5398C29.9165 14.6534 30.2191 14.8381 30.4918 15.0938C30.7646 15.3466 30.9819 15.6818 31.1438 16.0994C31.3058 16.517 31.3867 17.0312 31.3867 17.642V18.0682H26.3413V17.1989H30.364C30.364 16.8295 30.2901 16.5 30.1424 16.2102C29.9975 15.9205 29.7901 15.6918 29.5202 15.5241C29.2532 15.3565 28.9379 15.2727 28.5742 15.2727C28.1737 15.2727 27.8271 15.3722 27.5344 15.571C27.2447 15.767 27.0217 16.0227 26.8654 16.3381C26.7092 16.6534 26.631 16.9915 26.631 17.3523V17.9318C26.631 18.4261 26.7163 18.8452 26.8867 19.1889C27.06 19.5298 27.3001 19.7898 27.6069 19.9688C27.9137 20.1449 28.2702 20.233 28.6765 20.233C28.9407 20.233 29.1793 20.196 29.3924 20.1222C29.6083 20.0455 29.7944 19.9318 29.9506 19.7812C30.1069 19.6278 30.2276 19.4375 30.3129 19.2102L31.2844 19.483C31.1822 19.8125 31.0103 20.1023 30.7688 20.3523C30.5273 20.5994 30.229 20.7926 29.8739 20.9318C29.5188 21.0682 29.1197 21.1364 28.6765 21.1364ZM32.9165 21V14.4545H33.8881V15.4432H33.9563C34.0756 15.1193 34.2915 14.8565 34.604 14.6548C34.9165 14.4531 35.2688 14.3523 35.6609 14.3523C35.7347 14.3523 35.8271 14.3537 35.9379 14.3565C36.0487 14.3594 36.1325 14.3636 36.1893 14.3693V15.392C36.1552 15.3835 36.0771 15.3707 35.9549 15.3537C35.8356 15.3338 35.7092 15.3239 35.5756 15.3239C35.2575 15.3239 34.9734 15.3906 34.7234 15.5241C34.4762 15.6548 34.2802 15.8366 34.1353 16.0696C33.9933 16.2997 33.9222 16.5625 33.9222 16.858V21H32.9165ZM39.9265 21.1364C39.2958 21.1364 38.7518 20.9972 38.2944 20.7188C37.8398 20.4375 37.489 20.0455 37.2418 19.5426C36.9975 19.0369 36.8754 18.4489 36.8754 17.7784C36.8754 17.108 36.9975 16.517 37.2418 16.0057C37.489 15.4915 37.8327 15.0909 38.2731 14.804C38.7163 14.5142 39.2333 14.3693 39.8242 14.3693C40.1651 14.3693 40.5018 14.4261 40.8342 14.5398C41.1665 14.6534 41.4691 14.8381 41.7418 15.0938C42.0146 15.3466 42.2319 15.6818 42.3938 16.0994C42.5558 16.517 42.6367 17.0312 42.6367 17.642V18.0682H37.5913V17.1989H41.614C41.614 16.8295 41.5401 16.5 41.3924 16.2102C41.2475 15.9205 41.0401 15.6918 40.7702 15.5241C40.5032 15.3565 40.1879 15.2727 39.8242 15.2727C39.4237 15.2727 39.0771 15.3722 38.7844 15.571C38.4947 15.767 38.2717 16.0227 38.1154 16.3381C37.9592 16.6534 37.881 16.9915 37.881 17.3523V17.9318C37.881 18.4261 37.9663 18.8452 38.1367 19.1889C38.31 19.5298 38.5501 19.7898 38.8569 19.9688C39.1637 20.1449 39.5202 20.233 39.9265 20.233C40.1907 20.233 40.4293 20.196 40.6424 20.1222C40.8583 20.0455 41.0444 19.9318 41.2006 19.7812C41.3569 19.6278 41.4776 19.4375 41.5629 19.2102L42.5344 19.483C42.4322 19.8125 42.2603 20.1023 42.0188 20.3523C41.7773 20.5994 41.479 20.7926 41.1239 20.9318C40.7688 21.0682 40.3697 21.1364 39.9265 21.1364ZM46.6381 21.1364C46.0927 21.1364 45.6112 20.9986 45.1935 20.723C44.7759 20.4446 44.4492 20.0526 44.2134 19.5469C43.9776 19.0384 43.8597 18.4375 43.8597 17.7443C43.8597 17.0568 43.9776 16.4602 44.2134 15.9545C44.4492 15.4489 44.7773 15.0582 45.1978 14.7827C45.6183 14.5071 46.104 14.3693 46.6552 14.3693C47.0813 14.3693 47.418 14.4403 47.6651 14.5824C47.9151 14.7216 48.1055 14.8807 48.2362 15.0597C48.3697 15.2358 48.4734 15.3807 48.5472 15.4943H48.6325V12.2727H49.6381V21H48.6665V19.9943H48.5472C48.4734 20.1136 48.3683 20.2642 48.2319 20.446C48.0955 20.625 47.9009 20.7855 47.6481 20.9276C47.3952 21.0668 47.0586 21.1364 46.6381 21.1364ZM46.7745 20.233C47.1779 20.233 47.5188 20.1278 47.7972 19.9176C48.0756 19.7045 48.2873 19.4105 48.4322 19.0355C48.5771 18.6577 48.6495 18.2216 48.6495 17.7273C48.6495 17.2386 48.5785 16.8111 48.4364 16.4446C48.2944 16.0753 48.0842 15.7884 47.8058 15.5838C47.5273 15.3764 47.1836 15.2727 46.7745 15.2727C46.3484 15.2727 45.9933 15.3821 45.7092 15.6009C45.4279 15.8168 45.2163 16.1108 45.0742 16.483C44.935 16.8523 44.8654 17.267 44.8654 17.7273C44.8654 18.1932 44.9364 18.6165 45.0785 18.9972C45.2234 19.375 45.4364 19.6761 45.7177 19.9006C46.0018 20.1222 46.354 20.233 46.7745 20.233ZM55.131 21V12.2727H56.1367V15.4943H56.2219C56.2958 15.3807 56.3981 15.2358 56.5288 15.0597C56.6623 14.8807 56.8526 14.7216 57.0998 14.5824C57.3498 14.4403 57.6879 14.3693 58.114 14.3693C58.6651 14.3693 59.1509 14.5071 59.5714 14.7827C59.9918 15.0582 60.32 15.4489 60.5558 15.9545C60.7915 16.4602 60.9094 17.0568 60.9094 17.7443C60.9094 18.4375 60.7915 19.0384 60.5558 19.5469C60.32 20.0526 59.9933 20.4446 59.5756 20.723C59.158 20.9986 58.6765 21.1364 58.131 21.1364C57.7106 21.1364 57.3739 21.0668 57.1211 20.9276C56.8683 20.7855 56.6737 20.625 56.5373 20.446C56.4009 20.2642 56.2958 20.1136 56.2219 19.9943H56.1026V21H55.131ZM56.1197 17.7273C56.1197 18.2216 56.1921 18.6577 56.337 19.0355C56.4819 19.4105 56.6935 19.7045 56.9719 19.9176C57.2504 20.1278 57.5913 20.233 57.9947 20.233C58.4151 20.233 58.766 20.1222 59.0472 19.9006C59.3313 19.6761 59.5444 19.375 59.6864 18.9972C59.8313 18.6165 59.9038 18.1932 59.9038 17.7273C59.9038 17.267 59.8327 16.8523 59.6907 16.483C59.5515 16.1108 59.3398 15.8168 59.0558 15.6009C58.7745 15.3821 58.4208 15.2727 57.9947 15.2727C57.5856 15.2727 57.2418 15.3764 56.9634 15.5838C56.685 15.7884 56.4748 16.0753 56.3327 16.4446C56.1907 16.8111 56.1197 17.2386 56.1197 17.7273ZM62.8612 23.4545C62.6907 23.4545 62.5387 23.4403 62.4052 23.4119C62.2717 23.3864 62.1793 23.3608 62.1282 23.3352L62.3839 22.4489C62.6282 22.5114 62.8441 22.5341 63.0316 22.517C63.2191 22.5 63.3853 22.4162 63.5302 22.2656C63.6779 22.1179 63.8129 21.8778 63.935 21.5455L64.1225 21.0341L61.7021 14.4545H62.793L64.5998 19.6705H64.668L66.4748 14.4545H67.5657L64.7873 21.9545C64.6623 22.2926 64.5075 22.5724 64.3228 22.794C64.1381 23.0185 63.9237 23.1847 63.6793 23.2926C63.4379 23.4006 63.1651 23.4545 62.8612 23.4545Z" fill="black"/>
<g clip-path="url(#clip0_1_3)">
<mask id="mask0_1_3" style="mask-type:luminance" maskUnits="userSpaceOnUse" x="75" y="5" width="56" height="25">
<path d="M131 5H75V30H131V5Z" fill="white"/>
</mask>
<g mask="url(#mask0_1_3)">
<path d="M81.9036 5.0862C82.4718 5.17319 83.0016 5.24847 83.5262 5.34958C84.6455 5.56534 85.7191 5.90637 86.7311 6.47562C86.1582 7.55682 85.5999 8.61073 85.0165 9.71185C84.8722 9.61414 84.7474 9.52584 84.6187 9.44318C83.7427 8.88039 82.7985 8.53313 81.7326 8.71067C81.4094 8.76451 81.0734 8.90496 80.8074 9.09144C80.1327 9.56441 80.1263 10.4238 80.825 10.8647C81.299 11.1637 81.857 11.3447 82.3901 11.5472C83.3505 11.9121 84.3672 12.1664 85.2758 12.6244C86.8142 13.3999 87.5099 14.7206 87.3801 16.3921C87.3186 17.1846 87.2233 18.001 86.9624 18.7472C86.4158 20.31 85.1458 21.1895 83.5745 21.6599C80.5359 22.5697 77.7717 21.8807 75.1314 20.2385C75.7551 19.1008 76.3621 17.9935 76.9865 16.8545C77.3105 17.0884 77.6051 17.3197 77.9184 17.5242C78.9501 18.1977 80.06 18.6714 81.3317 18.4355C81.7559 18.3568 82.2062 18.1292 82.5218 17.8428C83.1274 17.2934 83.0537 16.3793 82.3597 15.938C81.8381 15.6063 81.2269 15.3946 80.6358 15.1806C79.8478 14.8953 79.0282 14.6906 78.2442 14.3962C76.6624 13.802 75.9094 12.6276 75.8145 11.015C75.6229 7.75618 77.5317 5.56873 80.9519 5.11908C81.2643 5.0862 81.5635 5.0862 81.9036 5.0862Z" fill="#18213C"/>
<path d="M131.089 14.0129C131.007 14.4492 130.93 14.8479 130.842 15.2441C130.036 18.8587 126.773 21.5211 122.954 21.6148C120.821 21.6672 118.685 21.6243 116.512 21.6243C116.512 20.4367 116.512 19.2701 116.512 18.0541C116.686 18.0541 116.86 18.0547 117.035 18.054C118.829 18.0454 120.627 18.1007 122.417 18.0122C124.757 17.8966 126.311 16.3609 126.487 14.1053C126.615 12.4598 126.233 10.9874 124.776 9.95456C123.95 9.36827 122.997 9.12617 121.977 9.1251C120.316 9.12335 118.654 9.12467 116.993 9.12469C116.834 9.1247 116.675 9.12469 116.495 9.12469C116.495 7.91922 116.495 6.76165 116.495 5.57561C116.639 5.56801 116.769 5.55522 116.9 5.55513C118.843 5.55385 120.786 5.54545 122.73 5.55607C126.968 5.57923 130.515 8.66587 130.984 12.7285C131.004 12.8991 131.01 13.0712 131.056 13.2593C131.089 13.5086 131.089 13.7414 131.089 14.0129Z" fill="#F28903"/>
<path d="M127.389 30.0862C127.307 30.0561 127.268 30.0114 127.221 29.9981C125.985 29.6546 125.391 28.7343 125.672 27.5903C125.912 26.6101 127.002 25.9656 128.129 26.1446C128.318 26.1746 128.5 26.2498 128.689 26.28C129.11 26.3471 129.206 26.5919 129.118 26.9281C128.65 26.8316 128.187 26.6731 127.717 26.6532C126.868 26.6172 126.176 27.3355 126.211 28.1323C126.248 28.9702 126.982 29.6063 127.847 29.5495C128.616 29.499 128.675 29.4299 128.61 28.6178C128.385 28.6178 128.156 28.6178 127.902 28.6178C127.893 28.4362 127.886 28.2972 127.877 28.1296C128.314 28.1296 128.737 28.1296 129.191 28.1296C129.191 28.638 129.191 29.1626 129.191 29.777C128.85 29.8526 128.47 29.9371 128.076 30.0539C127.851 30.0862 127.64 30.0862 127.389 30.0862Z" fill="#202942"/>
<path d="M107.86 15.5908C108.646 17.6147 109.423 19.6065 110.211 21.6267C108.641 21.6267 107.13 21.6267 105.585 21.6267C105.299 20.8827 104.993 20.1411 104.732 19.3849C104.593 18.9834 104.41 18.8103 103.926 18.8227C102.324 18.8633 100.721 18.8524 99.1193 18.8275C98.732 18.8215 98.5392 18.9224 98.4099 19.281C98.1566 19.9828 97.863 20.6717 97.5598 21.3551C97.5059 21.4765 97.3262 21.6243 97.2026 21.6259C95.7793 21.6449 94.3556 21.638 92.8667 21.638C93.0366 21.1959 93.1891 20.7872 93.3504 20.3815C95.2685 15.5567 97.1913 10.7337 99.0986 5.90483C99.2106 5.62127 99.3519 5.54886 99.6447 5.55221C100.935 5.56697 102.226 5.57096 103.517 5.55017C103.853 5.54476 104.002 5.6444 104.12 5.95111C105.353 9.15721 106.604 12.357 107.86 15.5908ZM99.8577 15.4359C99.907 15.4963 99.9559 15.609 100.006 15.6094C101.099 15.6195 102.193 15.6171 103.333 15.6171C102.731 13.9886 102.147 12.4075 101.563 10.8264C101.531 10.8286 101.5 10.8307 101.469 10.8328C100.942 12.3446 100.415 13.8565 99.8577 15.4359Z" fill="#18223C"/>
<path d="M117.119 15.6182C116.884 15.6182 116.693 15.6182 116.472 15.6182C116.472 14.254 116.472 12.9149 116.472 11.5562C117.858 11.5562 119.232 11.5562 120.64 11.5562C120.64 12.8847 120.64 14.2235 120.64 15.6182C119.489 15.6182 118.326 15.6182 117.119 15.6182Z" fill="#19223D"/>
<path d="M122.238 29.6283C122.232 29.767 122.226 29.866 122.22 29.962C121.882 30.0793 121.667 29.964 121.449 29.7122C120.721 28.8702 119.965 28.0502 119.139 27.1321C119.139 28.1494 119.139 29.0556 119.139 29.9818C118.929 29.9818 118.771 29.9818 118.579 29.9818C118.579 28.736 118.579 27.4841 118.579 26.2241C118.874 26.1285 119.089 26.2025 119.302 26.4488C120.044 27.3053 120.812 28.1404 121.628 29.0476C121.628 28.0702 121.628 27.1641 121.628 26.2229C121.84 26.2229 122.007 26.2229 122.238 26.2229C122.238 27.3347 122.238 28.4616 122.238 29.6283Z" fill="#293149"/>
<path d="M76.6326 26.1952C77.1039 26.6843 77.5379 27.1697 78.0099 27.6976C78.3399 27.3008 78.6879 26.9186 78.9911 26.5055C79.2015 26.2188 79.4428 26.123 79.8021 26.2253C79.8021 27.4627 79.8021 28.7066 79.8021 29.9759C79.6332 29.9759 79.4652 29.9759 79.247 29.9759C79.247 29.0441 79.247 28.1208 79.247 27.073C78.7881 27.6237 78.4119 28.075 77.9938 28.5767C77.5911 28.0978 77.2165 27.6521 76.7588 27.1075C76.7588 28.139 76.7588 29.0465 76.7588 29.9772C76.5391 29.9772 76.3696 29.9772 76.1778 29.9772C76.1778 28.7346 76.1778 27.4902 76.1778 26.1916C76.3151 26.1916 76.4552 26.1915 76.6326 26.1952Z" fill="#1E2740"/>
<path d="M96.142 26.2468C96.3264 26.2047 96.4872 26.196 96.6908 26.185C96.6908 26.7181 96.6908 27.2269 96.6908 27.7358C96.7219 27.7523 96.7531 27.7689 96.7843 27.7853C97.1882 27.3685 97.6228 26.9752 97.9859 26.5273C98.259 26.1903 98.5616 26.1333 99.0162 26.2356C98.4612 26.8294 97.9319 27.3958 97.4034 27.9614C98.0752 28.6378 98.7362 29.3032 99.4148 29.9864C99.0059 30.0252 98.6576 30.0284 98.3385 29.6868C97.8555 29.1698 97.3074 28.7099 96.7203 28.1637C96.7203 28.8158 96.7203 29.3918 96.7203 29.984C96.4991 29.984 96.328 29.984 96.1183 29.984C96.1183 28.7406 96.1183 27.5103 96.142 26.2468Z" fill="#232B44"/>
<path d="M91.858 28.0371C91.8145 28.1461 91.7479 28.2691 91.7858 28.3225C92.1696 28.8624 92.5704 29.3909 92.9767 29.9365C92.3345 30.0602 92.3336 30.0608 92.0163 29.6024C91.8104 29.3052 91.6196 28.9974 91.4003 28.7098C91.1952 28.4409 90.9247 28.2807 90.5209 28.3814C90.5209 28.8985 90.5209 29.4238 90.5209 29.9745C90.3185 29.9745 90.1511 29.9745 89.9618 29.9745C89.9618 28.7248 89.9618 27.4829 89.9618 26.2046C90.4092 26.2046 90.8508 26.1761 91.2867 26.2129C91.692 26.2471 92.028 26.4546 92.1674 26.8429C92.3242 27.2795 92.2663 27.6922 91.858 28.0371ZM91.2372 27.7827C91.5784 27.645 91.7035 27.3954 91.6009 27.0589C91.4973 26.7187 91.1498 26.6055 90.5289 26.6938C90.5289 27.069 90.5289 27.4469 90.5289 27.8575C90.7598 27.8375 90.9634 27.8199 91.2372 27.7827Z" fill="#1B233D"/>
<path d="M84.8028 26.1604C84.9291 26.2123 85.0721 26.2426 85.1084 26.3198C85.6753 27.5255 86.2286 28.7373 86.7867 29.9516C86.3522 30.1011 86.1137 29.9682 86.0052 29.574C85.8596 29.0452 85.5617 28.8098 84.9329 28.8616C84.0323 28.9359 84.0277 28.8805 83.6631 29.7075C83.6226 29.7993 83.5783 29.8896 83.5316 29.9892C83.3524 29.9892 83.1768 29.9892 82.9461 29.9892C83.0328 29.7797 83.1073 29.5902 83.189 29.4037C83.6158 28.4302 84.0398 27.4555 84.4782 26.487C84.5352 26.3611 84.6707 26.2686 84.8028 26.1604ZM85.0375 27.489C84.9741 27.3603 84.9107 27.2316 84.8214 27.0505C84.6276 27.505 84.4521 27.917 84.2675 28.3498C84.6771 28.3498 85.0291 28.3498 85.4283 28.3498C85.298 28.0649 85.1799 27.8066 85.0375 27.489Z" fill="#1E2740"/>
<path d="M103.216 26.8134C103.212 27.1675 103.212 27.4791 103.212 27.8211C103.755 27.8211 104.254 27.8211 104.788 27.8211C104.799 27.9857 104.807 28.1208 104.819 28.3038C104.283 28.3038 103.773 28.3038 103.237 28.3038C103.237 28.7139 103.237 29.078 103.237 29.4757C103.789 29.4757 104.331 29.4757 104.894 29.4757C104.894 29.6566 104.894 29.8042 104.894 29.9703C104.138 29.9703 103.401 29.9703 102.631 29.9703C102.631 28.7218 102.631 27.4713 102.631 26.2068C103.361 26.2068 104.08 26.2068 104.821 26.2068C104.821 26.3606 104.821 26.4973 104.821 26.6396C104.281 26.6838 103.75 26.7272 103.216 26.8134Z" fill="#222B44"/>
<path d="M108.078 26.6899C107.958 26.5387 107.877 26.3882 107.765 26.178C108.97 26.178 110.044 26.178 111.143 26.178C111.143 26.3384 111.143 26.4897 111.143 26.6741C110.712 26.6741 110.288 26.6741 109.818 26.6741C109.818 27.7879 109.818 28.8704 109.818 29.9781C109.601 29.9781 109.43 29.9781 109.212 29.9781C109.212 28.9071 109.212 27.8252 109.212 26.6907C108.817 26.6907 108.467 26.6907 108.078 26.6899Z" fill="#2E364E"/>
<path d="M114.388 29.0487C114.388 28.0882 114.388 27.1703 114.388 26.2203C114.584 26.2203 114.767 26.2203 114.964 26.2203C114.964 27.4686 114.964 28.7121 114.964 29.9791C114.783 29.9791 114.613 29.9791 114.388 29.9791C114.388 29.6844 114.388 29.3879 114.388 29.0487Z" fill="#273048"/>
</g>
</g>
<defs>
<clipPath id="clip0_1_3">
<rect width="56" height="25" fill="white" transform="translate(75 5)"/>
</clipPath>
</defs>
</svg>
