<?xml version="1.0" encoding="utf-8"?>
<!-- Generator: Adobe Illustrator 26.3.1, SVG Export Plug-In . SVG Version: 6.00 Build 0)  -->
<svg version="1.1" id="Calque_1" xmlns="http://www.w3.org/2000/svg" xmlns:xlink="http://www.w3.org/1999/xlink" x="0px" y="0px"
	 viewBox="0 0 1920 1080" style="enable-background:new 0 0 1920 1080;" xml:space="preserve">
<style type="text/css">
	.st0{fill:none;stroke:#000000;stroke-width:22;stroke-miterlimit:10;}
	.st1{fill:none;stroke:#000000;stroke-width:34.5702;stroke-miterlimit:10;}
</style>
<g>
	<g>
		<path d="M547.9,472.5h23.7V489h0.6h-0.3c3.8-5.2,9.7-9.8,17.6-13.9c7.9-4,16.7-6.1,26.6-6.1c12.1,0,22.4,2,30.9,6.1
			c8.5,4,15.3,9.5,20.5,16.3s8.9,14.6,11.3,23.2c2.3,8.7,3.5,17.6,3.5,26.8s-1.2,18.2-3.6,26.8c-2.4,8.7-6.3,16.4-11.5,23.2
			c-5.3,6.8-12.1,12.3-20.5,16.3s-18.4,6.1-30.2,6.1c-9.2,0-17.7-1.7-25.3-5.2s-13.9-8.7-18.9-15.6h-0.6v82H548L547.9,472.5
			L547.9,472.5z M656.7,541.4c0-6.9-0.8-13.5-2.5-19.8c-1.6-6.3-4.2-11.8-7.6-16.6c-3.5-4.8-7.9-8.7-13.3-11.5
			c-5.4-2.9-11.9-4.3-19.6-4.3c-7.7,0-14.2,1.4-19.6,4.3c-5.4,2.9-9.8,6.7-13.3,11.5s-6,10.3-7.6,16.6s-2.5,12.8-2.5,19.8
			s1,13.5,2.9,19.8s4.7,11.8,8.4,16.6s8.1,8.7,13.4,11.5c5.3,2.9,11.4,4.3,18.3,4.3c7.7,0,14.2-1.4,19.6-4.3
			c5.4-2.9,9.8-6.7,13.3-11.5s6-10.3,7.6-16.6C655.9,555,656.7,548.4,656.7,541.4z"/>
		<path d="M710.1,472.5h23.7v23.7h0.6c5.6-9.4,12.1-16,19.6-19.8s17.2-5.6,29.2-5.6v26c-2.3-0.2-5-0.3-8.1-0.4s-5.7-0.1-7.8-0.1
			c-5.8,0-10.7,1.2-14.9,3.6c-4.1,2.4-7.6,5.4-10.4,8.9c-2.8,3.6-4.9,7.5-6.2,11.8s-2,8.5-2,12.6v77.4h-23.7L710.1,472.5
			L710.1,472.5z"/>
		<path d="M823.3,546.6c0,6.9,0.9,13.3,2.7,19.2s4.5,11,7.9,15.4c3.5,4.4,7.8,7.9,13,10.4s11.2,3.8,17.9,3.8
			c20.6,0,33.5-10.3,38.7-30.9l23.4,2.9c-4.4,15.6-12.2,27.2-23.2,34.9c-11.1,7.7-24.3,11.5-39.7,11.5c-10.6,0.2-20-1.6-28.1-5.3
			c-8.2-3.8-15.1-8.8-20.8-15.3c-5.7-6.4-10-14-12.8-22.8c-2.9-8.8-4.3-18-4.3-27.9c0-11.2,1.3-21.3,4-30.3s6.7-16.8,12.1-23.2
			c5.4-6.4,12.2-11.4,20.5-14.9s18-5.2,29.2-5.2c10.8,0,20.2,1.8,28.3,5.5s14.8,8.8,20.1,15.3s9.3,14.2,12,22.9
			c2.7,8.8,4,18.2,4,28.4v5.5L823.3,546.6L823.3,546.6z M902.6,528.2c-0.8-5.6-2.1-10.9-4-15.9s-4.6-9.3-8.1-13s-7.6-6.5-12.4-8.7
			c-4.8-2.1-10.5-3.2-17-3.2c-5.8,0-10.9,1.2-15.4,3.5s-8.4,5.3-11.5,9.1c-3.2,3.8-5.7,8.1-7.5,13s-2.9,10-3.3,15.2H902.6z"/>
		<path d="M1081.9,610.4h-23.7V594h-0.6c-4.6,6.5-10.7,11.5-18.2,14.9s-15.5,5-24,5c-12.7,0-23.4-2-32-6.1
			c-8.7-4-15.6-9.5-20.9-16.3c-5.3-6.8-9.1-14.6-11.4-23.2c-2.3-8.7-3.5-17.6-3.5-26.8s1.2-18.2,3.6-26.8
			c2.4-8.7,6.3-16.4,11.5-23.2c5.3-6.8,12.1-12.3,20.3-16.3c8.3-4,18.4-6.1,30.3-6.1c9.2,0,17.7,1.7,25.3,5.2
			c7.6,3.5,13.9,8.7,18.9,15.6h0.6V405h23.7L1081.9,610.4L1081.9,610.4z M973.1,541.4c0,6.9,0.8,13.5,2.5,19.8
			c1.6,6.3,4.2,11.8,7.6,16.6c3.5,4.8,7.9,8.7,13.3,11.5c5.4,2.9,11.9,4.3,19.6,4.3c7.7,0,14.2-1.4,19.6-4.3
			c5.4-2.9,9.8-6.7,13.3-11.5s6-10.3,7.6-16.6s2.5-12.8,2.5-19.8s-1-13.5-2.9-19.8s-4.7-11.8-8.4-16.6c-3.7-4.8-8.1-8.7-13.4-11.5
			c-5.3-2.9-11.4-4.3-18.3-4.3c-7.7,0-14.2,1.4-19.6,4.3c-5.4,2.9-9.8,6.7-13.3,11.5s-6,10.3-7.6,16.6
			C973.9,527.9,973.1,534.5,973.1,541.4z"/>
		<path d="M1115.9,404.9h23.7V432h-23.7V404.9z M1115.9,472.5h23.7v138h-23.7V472.5z"/>
		<path d="M1272.1,518.1c-1.7-9.4-5.9-16.9-12.4-22.4s-14.6-8.2-24.2-8.2c-8.5,0-15.4,1.6-20.9,4.9s-9.9,7.5-13.1,12.7
			c-3.3,5.2-5.6,11-6.9,17.5c-1.3,6.4-2,12.8-2,19.2c0,6.7,0.8,13.3,2.3,19.8s3.9,12.2,7.2,17.2c3.3,5,7.6,9,13,12.1
			s12,4.6,19.9,4.6c11.7,0,21.2-3.3,28.3-9.8c7.1-6.5,10.9-15.7,11.3-27.4l25.4,2c-2.1,16.9-8.9,30.1-20.5,39.5
			c-11.5,9.4-26.1,14.1-43.6,14.1c-11.2,0-21-1.7-29.6-5.2s-15.7-8.3-21.5-14.6s-10.2-13.7-13.1-22.4c-3-8.7-4.5-18.3-4.5-28.9
			c0-10.6,1.5-20.4,4.5-29.4s7.4-16.9,13.1-23.5c5.8-6.6,12.9-11.8,21.4-15.4c8.5-3.7,18.3-5.5,29.4-5.5c7.1,0,14.1,1,20.9,2.9
			s13,4.8,18.5,8.7c5.5,3.8,10.2,8.7,14.1,14.4c3.9,5.8,6.8,12.6,8.5,20.5L1272.1,518.1z"/>
		<path d="M1646.1,472.5h23.7V489h0.6h-0.3c3.8-5.2,9.7-9.8,17.6-13.9c7.9-4,16.7-6.1,26.6-6.1c12.1,0,22.4,2,30.9,6.1
			c8.5,4,15.3,9.5,20.5,16.3s8.9,14.6,11.3,23.2c2.3,8.7,3.5,17.6,3.5,26.8s-1.2,18.2-3.6,26.8c-2.4,8.7-6.3,16.4-11.5,23.2
			c-5.3,6.8-12.1,12.3-20.5,16.3s-18.4,6.1-30.2,6.1c-9.2,0-17.7-1.7-25.3-5.2c-7.6-3.5-13.9-8.7-18.9-15.6h-0.6v82h-23.7
			L1646.1,472.5L1646.1,472.5z M1754.9,541.4c0-6.9-0.8-13.5-2.5-19.8c-1.6-6.3-4.2-11.8-7.6-16.6c-3.5-4.8-7.9-8.7-13.3-11.5
			c-5.4-2.9-11.9-4.3-19.6-4.3s-14.2,1.4-19.6,4.3s-9.8,6.7-13.3,11.5s-6,10.3-7.6,16.6s-2.5,12.8-2.5,19.8s1,13.5,2.9,19.8
			s4.7,11.8,8.4,16.6c3.7,4.8,8.1,8.7,13.4,11.5c5.3,2.9,11.4,4.3,18.3,4.3c7.7,0,14.2-1.4,19.6-4.3c5.4-2.9,9.8-6.7,13.3-11.5
			s6-10.3,7.6-16.6C1754.1,555,1754.9,548.4,1754.9,541.4z"/>
		<path d="M1824.5,561.9c0,6.4,1.2,11.7,3.5,16s5.3,7.8,9.1,10.4c3.8,2.6,7.9,4.4,12.6,5.5s9.3,1.6,14.1,1.6c2.7,0,5.8-0.3,9.4-0.9
			c3.6-0.6,6.9-1.7,10.1-3.5c3.2-1.7,5.9-4.1,8.1-7.2c2.2-3.1,3.3-7.1,3.3-12.1c0-5.8-2.2-10.1-6.6-12.8c-4.4-2.8-10-5-16.7-6.6
			s-14-3.1-21.6-4.5c-7.7-1.3-14.9-3.4-21.6-6.1c-6.7-2.7-12.3-6.5-16.7-11.5c-4.4-5-6.6-12-6.6-21.1c0-6.9,1.5-12.9,4.6-18
			s7.1-9.3,12.1-12.6c5-3.3,10.6-5.7,16.7-7.2c6.2-1.5,12.3-2.3,18.5-2.3c4.6,0,10.3,0.7,17.2,2c6.8,1.3,13.3,3.8,19.5,7.2
			c6.2,3.5,11.4,8.1,15.9,13.9c4.4,5.8,6.6,13.1,6.6,21.9l-23.7,3.2c0-5-1-9.4-2.9-13.1c-1.9-3.8-4.5-6.8-7.6-9.2
			c-3.2-2.4-6.8-4.2-11-5.5c-4.1-1.2-8.4-1.9-12.8-1.9c-3.3,0-6.6,0.3-10.1,0.9s-6.6,1.6-9.5,3.2c-2.9,1.5-5.2,3.6-7.1,6.2
			c-1.8,2.6-2.7,6-2.7,10.2c0,5.2,2.3,9.1,6.8,11.7s10.2,4.8,17,6.5s14.2,3.4,22.1,4.9s15.2,3.8,22.1,6.6c6.8,2.9,12.5,7,17,12.3
			s6.8,12.5,6.8,21.5c0,7.3-1.7,13.6-5.1,18.9c-3.4,5.3-7.9,9.7-13.6,13.1c-5.7,3.5-12.1,6.1-19.2,7.8s-14.4,2.6-21.9,2.6
			s-14.8-0.9-21.8-2.7s-13.3-4.7-18.9-8.5s-10.2-8.9-13.9-15.2c-3.7-6.3-5.9-13.7-6.6-22.4L1824.5,561.9z"/>
		<path class="st0" d="M1540.6,605.5h-67.7c-35.2,0-64.1-28.8-64.1-64.1l0,0c0-35.2,28.8-64.1,64.1-64.1h67.7
			c35.2,0,64.1,28.8,64.1,64.1l0,0C1604.7,576.7,1575.9,605.5,1540.6,605.5z"/>
		<path d="M1372.6,593c-2.3,0.5-4.8,0.7-7.5,0.7c-4.8,0-7.6-1.4-8.4-4.2s-1.2-5.8-1.2-9.1v-87.8h22.5v-20.2h-22.5v-43h-23.7v43H1309
			v20.2h22.8v94.1c0,3.9,0.1,7.5,0.4,10.8c0.3,3.4,1.2,6.3,2.7,8.7s3.9,4.3,7.2,5.6c3.3,1.3,8,2,14.1,2c3.8,0,7.7-0.2,11.7-0.7
			c3.9-0.5,7.8-1.2,11.7-2.2v-20.2C1377.3,591.8,1374.9,592.5,1372.6,593z"/>
	</g>
	<g>
		<path class="st1" d="M272.4,660.6H144.6c-67.2,0-122.2-55-122.2-122.2l0,0c0-67.2,55-122.2,122.2-122.2h127.8
			c67.2,0,122.2,55,122.2,122.2l0,0C394.5,605.7,339.6,660.6,272.4,660.6z"/>
		<line class="st1" x1="22.4" y1="538.5" x2="394.5" y2="538.5"/>
	</g>
</g>
</svg>
