<svg width="31" height="31" viewBox="0 0 31 31" fill="none" xmlns="http://www.w3.org/2000/svg">
<path fill-rule="evenodd" clip-rule="evenodd" d="M19.95 11H13V4.05C14.8333 4.3 16.3875 5.0625 17.6625 6.3375C18.9375 7.6125 19.7 9.16667 19.95 11ZM5.9875 6.6875C7.3125 5.17917 8.98333 4.3 11 4.05V19.95C8.98333 19.7 7.3125 18.8208 5.9875 17.3125C4.6625 15.8042 4 14.0333 4 12C4 9.96667 4.6625 8.19583 5.9875 6.6875ZM14 19.7639C13.6763 19.8443 13.343 19.9064 13 19.95V13H19.95C19.8102 14.0988 19.4817 15.0988 18.9647 16H21.1577C21.1762 15.9585 21.1944 15.9168 21.2125 15.875C21.7375 14.6583 22 13.3667 22 12C22 10.6167 21.7375 9.32083 21.2125 8.1125C20.6875 6.90417 19.9708 5.84583 19.0625 4.9375C18.1542 4.02917 17.0958 3.3125 15.8875 2.7875C14.6792 2.2625 13.3833 2 12 2C10.6167 2 9.31667 2.2625 8.1 2.7875C6.88333 3.3125 5.825 4.025 4.925 4.925C4.025 5.825 3.3125 6.88333 2.7875 8.1C2.2625 9.31667 2 10.6167 2 12C2 13.3833 2.2625 14.6833 2.7875 15.9C3.3125 17.1167 4.025 18.175 4.925 19.075C5.825 19.975 6.88333 20.6875 8.1 21.2125C9.31667 21.7375 10.6167 22 12 22C12.6872 22 13.3539 21.9352 14 21.8056V19.7639Z" fill="#E8EAED"/>
<path d="M20.3333 28V24H21.6667V25.3333H27V26.6667H21.6667V28H20.3333ZM15 26.6667V25.3333H19V26.6667H15ZM17.6667 24V22.6667H15V21.3333H17.6667V20H19V24H17.6667ZM20.3333 22.6667V21.3333H27V22.6667H20.3333ZM23 20V16H24.3333V17.3333H27V18.6667H24.3333V20H23ZM15 18.6667V17.3333H21.6667V18.6667H15Z" fill="#E8EAED"/>
</svg>
